<?xml version="1.0" encoding="utf-8"?>
<!-- Generator: Adobe Illustrator 28.0.0, SVG Export Plug-In . SVG Version: 6.00 Build 0)  -->
<svg version="1.1" id="Camada_1" xmlns="http://www.w3.org/2000/svg" xmlns:xlink="http://www.w3.org/1999/xlink" x="0px" y="0px"
	 viewBox="0 0 800 800" style="enable-background:new 0 0 800 800;" xml:space="preserve">
<style type="text/css">
	.st0{fill:#1D1D1B;}
	.st1{fill:#1D1D1B;stroke:#E20613;stroke-width:11;stroke-miterlimit:10;}
	.st2{fill:#FFFFFF;}
</style>
<g>
	<g>
		<path class="st0" d="M137.5,25h525C724.6,25,775,75.4,775,137.5v525c0,62.1-50.4,112.5-112.5,112.5h-525
			C75.4,775,25,724.6,25,662.5v-525C25,75.4,75.4,25,137.5,25z"/>
	</g>
	<g>
		<path class="st1" d="M400,107.5c-161.6,0-292.5,130.9-292.5,292.5S238.4,692.5,400,692.5S692.5,561.6,692.5,400
			S561.6,107.5,400,107.5z"/>
	</g>
	<path class="st2" d="M425.2,238.8c-3-8.5-11.1-13.8-19.6-13.4c-9-0.3-16.9,5.1-20.3,13.4L246.5,572.3H294l55-137.7l163.8,132.3
		c6.6,5.4,11.4,7.8,17.6,7.8c12.5,0.3,22.8-9.5,23.2-22h0c0-0.4,0-0.4,0-0.6c0-3-0.9-6.2-2.1-9.2L425.2,238.8z M363.6,398.4
		l41.9-104.9l82.2,202.7L363.6,398.4z"/>
</g>
</svg>
