<?xml version="1.0" encoding="utf-8"?>
<!-- Generator: Adobe Illustrator 28.0.0, SVG Export Plug-In . SVG Version: 6.00 Build 0)  -->
<svg version="1.1" id="Camada_1" xmlns="http://www.w3.org/2000/svg" xmlns:xlink="http://www.w3.org/1999/xlink" x="0px" y="0px"
	 viewBox="0 0 800 800" style="enable-background:new 0 0 800 800;" xml:space="preserve">
<style type="text/css">
	.st0{fill:#2F3A3E;}
	.st1{fill:#FFFFFF;}
	.st2{fill:#43AC4C;}
</style>
<g>
	<g>
		<path class="st0" d="M137.5,25h525C724.6,25,775,75.4,775,137.5v525c0,62.1-50.4,112.5-112.5,112.5h-525
			C75.4,775,25,724.6,25,662.5v-525C25,75.4,75.4,25,137.5,25z"/>
	</g>
	<g>
		<path class="st0" d="M645.5,206L439.2,83.5c-24.5-14.6-55.1-14.6-79.6,0L153.2,206c-24.8,15-39.9,41.9-39.8,70.9v244.9
			c-0.1,29,15,55.9,39.8,70.9l206.3,122.5c24.5,14.6,55.1,14.6,79.6,0l206.3-122.5c24.8-15,40-41.9,39.8-70.9V276.9
			C685.4,247.9,670.3,220.9,645.5,206z"/>
		<path class="st1" d="M646.7,206.3L439.9,83.5c-24.6-14.7-55.2-14.7-79.8,0L153.3,206.3c-24.9,15-40,42-39.9,71v245.5
			c-0.1,29,15,56,39.9,71l206.8,122.7c24.6,14.6,55.2,14.6,79.8,0l206.8-122.7c24.9-15,40.1-42,39.9-71V277.3
			C686.7,248.3,671.6,221.3,646.7,206.3z M367.3,704L160.6,581.2c-20.4-12.4-32.9-34.6-32.8-58.5V277.3
			c-0.1-23.9,12.4-46.1,32.8-58.5L367.3,96.1c20.1-12,45.2-12,65.3,0l206.6,122.8c17,10.3,28.7,27.6,31.8,47.3
			c-6.9-14.6-22.3-18.6-40.3-8.3L435.2,378.9c-24.4,14.2-42.4,30.2-42.4,59.6v241.1c0,17.6,7.1,29,18,32.3c-3.6,0.7-7.2,1-10.8,1
			C388.5,712.9,377.2,709.8,367.3,704z"/>
		<path class="st2" d="M591.9,546l-51.4,30.7c-1.4,0.6-2.3,1.9-2.4,3.3v13.5c0,1.7,1.1,2.3,2.5,1.5l52.2-31.7c1.3-1,1.9-2.6,1.6-4.1
			v-11.9C594.4,545.9,593.2,545.2,591.9,546z"/>
		<path class="st0" d="M482.6,432.8c1.7-0.8,3,0,3.1,2.4l0.2,17.9c6.2-2.8,13.1-3.6,19.7-2.4c1.3,0.3,1.8,2.1,1.3,4.1l-3.9,15.7
			c-0.3,1.2-0.9,2.3-1.8,3.1c-0.3,0.3-0.7,0.6-1,0.7c-0.5,0.3-1,0.3-1.5,0.2c-6.5-1.4-13.3-0.3-19,3.1c-8.4,3.8-13.9,12-14.1,21.2
			c0,8.3,4.1,10.5,18.5,10.8c19,0.3,27.3,8.6,27.5,27.8c-0.5,20.1-9.7,38.9-25.3,51.5l0.3,17.6c0,2.2-1.2,4.2-3,5.4l-10.4,6
			c-1.7,0.8-3,0-3.1-2.3v-17.3c-8.9,3.7-18,4.6-23.8,2.3c-1.1-0.4-1.6-2-1.1-3.9l3.8-15.9c0.3-1.3,0.9-2.4,1.9-3.3
			c0.3-0.3,0.6-0.5,1-0.7c0.5-0.2,1.2-0.2,1.7,0c7.4,2,15.2,1,21.9-2.8c9.6-4.6,15.8-14.2,16.2-24.8c0-8.9-4.9-12.6-16.5-12.7
			c-15,0-28.9-2.9-29.2-24.8c0.3-19.1,9.2-37.1,24.2-49l-0.7-18c0-2.2,1.1-4.3,3-5.5L482.6,432.8z"/>
	</g>
</g>
</svg>
