<?xml version="1.0" encoding="utf-8"?>
<!-- Generator: Adobe Illustrator 28.0.0, SVG Export Plug-In . SVG Version: 6.00 Build 0)  -->
<svg version="1.1"
	 id="svg10" xmlns:inkscape="http://www.inkscape.org/namespaces/inkscape" xmlns:sodipodi="http://sodipodi.sourceforge.net/DTD/sodipodi-0.dtd" xmlns:svg="http://www.w3.org/2000/svg" xmlns:rdf="http://www.w3.org/1999/02/22-rdf-syntax-ns#" xmlns:cc="http://creativecommons.org/ns#" xmlns:dc="http://purl.org/dc/elements/1.1/" inkscape:version="1.0.1 (3bc2e813f5, 2020-09-07)" sodipodi:docname="icons8-c-programming.svg"
	 xmlns="http://www.w3.org/2000/svg" xmlns:xlink="http://www.w3.org/1999/xlink" x="0px" y="0px" viewBox="0 0 420.1 420"
	 style="enable-background:new 0 0 420.1 420;" xml:space="preserve">
<style type="text/css">
	.st0{fill:#2F3A3E;}
	.st1{fill-rule:evenodd;clip-rule:evenodd;fill:#0D4580;}
	.st2{fill-rule:evenodd;clip-rule:evenodd;fill:#6599D1;}
	.st3{fill-rule:evenodd;clip-rule:evenodd;fill:#FFFFFF;}
	.st4{fill-rule:evenodd;clip-rule:evenodd;fill:#035A9C;}
</style>
<sodipodi:namedview  bordercolor="#666666" borderopacity="1" fit-margin-bottom="0" fit-margin-left="0" fit-margin-right="0" fit-margin-top="0" gridtolerance="10" guidetolerance="10" id="namedview12" inkscape:current-layer="svg10" inkscape:cx="190" inkscape:cy="210.00282" inkscape:pageopacity="0" inkscape:pageshadow="2" inkscape:window-height="1056" inkscape:window-maximized="1" inkscape:window-width="1920" inkscape:window-x="0" inkscape:window-y="0" inkscape:zoom="1.4895833" objecttolerance="10" pagecolor="#ffffff" showgrid="false">
	</sodipodi:namedview>
<g>
	<g>
		<path class="st0" d="M64.8,2.5h290.5c34.4,0,62.3,27.9,62.3,62.3v290.5c0,34.4-27.9,62.3-62.3,62.3H64.8
			c-34.4,0-62.3-27.9-62.3-62.3V64.7C2.5,30.3,30.4,2.5,64.8,2.5z"/>
	</g>
	<g>
		<path id="path2_00000114776303089314215880000010340003984224619137_" class="st1" d="M201,40c5.6-3.1,12.4-3.1,18,0
			c27.5,15.5,110.4,62,138,77.4c5.6,3.1,9,8.9,9,15.2c0,30.9,0,124,0,154.9c0,6.3-3.4,12-9,15.2c-27.5,15.5-110.4,62-138,77.4
			c-5.6,3.1-12.4,3.1-18,0c-27.5-15.5-110.4-62-138-77.4c-5.6-3.1-9-8.9-9-15.2c0-30.9,0-124,0-154.9c0-6.3,3.4-12,9-15.2
			C90.6,101.9,173.5,55.4,201,40L201,40z"/>
		<path id="path4_00000144296695892073187380000017345851751138366898_" class="st2" d="M56.6,295.4c-2.2-2.9-2.5-5.7-2.5-9.4
			c0-30.7,0-123.2,0-154c0-6.2,3.4-12,9-15.1c27.4-15.4,110-61.6,137.5-77c5.6-3.1,13.1-3,18.6,0.1c27.4,15.4,109.8,61.2,137.2,76.6
			c2.2,1.2,3.9,2.7,5.4,4.7L56.6,295.4z"/>
		<path id="path6_00000062891474359992018240000001904864332905164946_" class="st3" d="M210,95.1C273.5,95.1,325,146.6,325,210
			S273.5,324.9,210,324.9S95.1,273.4,95.1,210S146.6,95.1,210,95.1z M210,152.5c31.7,0,57.5,25.7,57.5,57.5
			c0,31.7-25.8,57.5-57.5,57.5s-57.5-25.8-57.5-57.5C152.6,178.3,178.3,152.5,210,152.5z"/>
		<path id="path8_00000125587170131176011520000016203630833286542488_" class="st4" d="M361.8,121.4c4.2,4,4.2,9.9,4.2,14.6
			c0,31.2-0.3,119.8,0.1,150.9c0,3.3-1,6.7-2.7,9.3L206.7,210L361.8,121.4z"/>
	</g>
</g>
</svg>
