<?xml version="1.0" encoding="utf-8"?>
<!-- Generator: Adobe Illustrator 28.0.0, SVG Export Plug-In . SVG Version: 6.00 Build 0)  -->
<svg version="1.1" id="Camada_1" xmlns="http://www.w3.org/2000/svg" xmlns:xlink="http://www.w3.org/1999/xlink" x="0px" y="0px"
	 viewBox="0 0 1258.9 1259" style="enable-background:new 0 0 1258.9 1259;" xml:space="preserve">
<style type="text/css">
	.st0{fill:#E74329;}
	.st1{fill:#FFFFFF;}
	.st2{fill-rule:evenodd;clip-rule:evenodd;fill:#FFFFFF;}
</style>
<g>
	<g>
		<path class="st0" d="M200.4,16.7h858c101.5,0,183.9,82.3,183.9,183.9v858c0,101.5-82.3,183.9-183.9,183.9h-858
			c-101.5,0-183.9-82.3-183.9-183.9v-858C16.6,99,98.9,16.7,200.4,16.7z"/>
	</g>
	<g id="图层_1_00000059303673828031390590000009234439525463366280_">
		<g id="_x3C_Group_x3E__00000096038563759374909260000008212744172913741978_">
			<path id="_x3C_Path_x3E__00000137851580055472937610000014397086621540732605_" class="st1" d="M1111.9,884.1
				c-23.1-2.3-64-8-115.2,17.8c-51.2,25.8-71.3,26.9-96.4,24.2c7.4,13.5,22.4,32,69.4,35.4c47,3.3,69.5,4.7,44.8,63.3
				c0.6-17.7-3.6-51.9-50.2-45.9c-46.7,6-57.6,48-7.5,69c-16.3,3.3-50.8,5.3-75.4-59.3c-17.1,7.4-43.4,22.3-91.2-14.5
				c11.1,4,23.5,6.1,37.2,6.4c-42.4-20.2-82.9-57.9-108.8-93.4c20.6,15.3,43.2,30.6,66.2,33.4c-27.2-33-89.8-99.2-166.5-167.2
				c49.3,32.2,108.8,83.1,206.3,71.7C921.8,813.6,987.3,791.3,1111.9,884.1L1111.9,884.1z"/>
			<path id="_x3C_Path_x3E__00000143583927652698169050000012744216555615484604_" class="st1" d="M694.9,861.2
				c-61.1-26.5-74.1-31.8-152.7-51.7c-78.5-20-155.8-61.5-207.5-126.3c36.4,26.7,110.8,80.3,187.2,74.5c-11.6-17-33-30.2-58.6-43.6
				C492.2,721,579.6,743.4,694.9,861.2z"/>
			<path id="_x3C_Path_x3E__00000119814873929623004520000005268341105633924770_" class="st1" d="M345.3,470.5
				c-201.9-126.2-242-223.4-251.1-260.8c126.8,138.7,223.2,193,288.8,236.4c134.8,85.9,163.2,143.7,179,188.9
				C497.3,543.8,411.7,515.9,345.3,470.5L345.3,470.5z"/>
			<path id="_x3C_Path_x3E__00000141425785478975718780000015597530702872164795_" class="st1" d="M370.4,570.6
				C185.6,472.9,142.7,394.7,134.3,359c92.5,98.6,195.3,150.5,255.6,184.2c130.5,70,163.8,119.1,180.4,157.3
				C508.1,625.2,421.6,598.7,370.4,570.6L370.4,570.6z"/>
			<path id="_x3C_Compound_Path_x3E__00000096762362521849150570000004741897565012210362_" class="st2" d="M968.4,697.1
				c-17.1,40.8,2.6,45.3,10.6,48.4c40.6,15.5,148.1,35.5,141.4,80.9c12.5,12.5,59,62.5,39.6,97.2c-16.7-27.2-93.4-97.9-186.1-112.4
				c-92.8-14.5-177.3,16.8-247.2-29.6c-59.3-42.7-68.9-58.9-128.6-156.7c-26.8-43.9-32-83.9-123.1-158.2S298.7,352.8,263,242.1
				c78.3,96.2,179.5,188.1,433.9,260.9C1015.6,591.9,991.5,640.8,968.4,697.1L968.4,697.1z M1110.5,836.6
				c-0.5-17.6,1.9-27.8-46.4-35.2C1081.3,809.9,1096.8,821.7,1110.5,836.6z"/>
		</g>
	</g>
</g>
</svg>
