<?xml version="1.0" encoding="utf-8"?>
<!-- Generator: Adobe Illustrator 28.0.0, SVG Export Plug-In . SVG Version: 6.00 Build 0)  -->
<svg version="1.1" id="Camada_1" xmlns="http://www.w3.org/2000/svg" xmlns:xlink="http://www.w3.org/1999/xlink" x="0px" y="0px"
	 viewBox="0 0 800 800" style="enable-background:new 0 0 800 800;" xml:space="preserve">
<style type="text/css">
	.st0{fill:#278CCC;}
	.st1{fill:#FFFFFF;}
</style>
<g>
	<path class="st0" d="M137.5,25h525C724.6,25,775,75.4,775,137.5v525c0,62.1-50.4,112.5-112.5,112.5h-525
		C75.4,775,25,724.6,25,662.5v-525C25,75.4,75.4,25,137.5,25z"/>
	<g>
		<path class="st1" d="M718.1,343c-1.8-1.5-18.2-13.8-52.8-13.8c-9.2,0-18.3,0.7-27.4,2.4c-6.7-46-44.7-68.4-46.4-69.4l-9.3-5.4
			l-6.1,8.8c-7.7,11.9-13.2,24.9-16.5,38.7c-6.2,26.2-2.5,50.9,10.9,71.9c-16.1,8.9-42,11.2-47.2,11.3H95.7
			c-11.2,0-20.2,9-20.2,20.2c-0.5,37.4,5.9,74.6,18.7,109.8c14.7,38.7,36.6,67.1,65.1,84.5c31.9,19.6,83.8,30.8,142.7,30.8
			c26.6,0.1,53.2-2.4,79.3-7.2c36.3-6.7,71.3-19.3,103.4-37.6c26.5-15.4,50.3-34.8,70.6-57.8c33.8-38.3,54.1-81.1,69.1-119h6
			c37.1,0,59.9-14.8,72.5-27.3c8.4-7.9,14.9-17.5,19.1-28.3l2.6-7.8L718.1,343z M135.3,375.2h57.3c2.7,0,5-2.3,5-5v-51
			c0-2.7-2.3-5-5-5.1h-57.3c-2.7,0-5,2.3-5,5v51.1C130.3,373,132.6,375.2,135.3,375.2 M214.3,375.2h57.3c2.7,0,5-2.3,5-5v-51
			c0-2.7-2.3-5-5-5.1h-57.3c-2.8,0-5.1,2.3-5.1,5.1v51C209.3,373,211.5,375.2,214.3,375.2 M294.4,375.3h57.3c2.7,0,5-2.3,5-5v-51
			c0-2.7-2.3-5-5-5.1h-57.3c-2.7,0-5,2.3-5,5v51.1C289.5,373,291.7,375.2,294.4,375.3 M373.7,375.3h57.3c2.7,0,5-2.3,5.1-5v-51
			c0-2.8-2.3-5.1-5.1-5.1h-57.3c-2.7,0-5,2.3-5,5v51.1C368.7,373,370.9,375.3,373.7,375.3 M214.2,301.8h57.3c2.7,0,5-2.3,5-5.1v-51
			c0-2.7-2.3-5-5-5h-57.3c-2.8,0-5,2.3-5.1,5v51C209.3,299.5,211.5,301.8,214.2,301.8 M294.4,301.8h57.3c2.7,0,5-2.3,5-5.1v-51
			c0-2.7-2.3-5-5-5h-57.3c-2.7,0-5,2.3-5,5v51C289.5,299.5,291.7,301.8,294.4,301.8 M373.7,301.8h57.3c2.8,0,5-2.3,5.1-5.1v-51
			c0-2.8-2.3-5-5.1-5h-57.3c-2.7,0-5,2.3-5,5v51C368.7,299.5,370.9,301.8,373.7,301.8 M373.7,228.4h57.3c2.8,0,5.1-2.3,5.1-5.1
			v-51.1c0-2.7-2.3-5-5.1-5h-57.3c-2.7,0-5,2.3-5,5v51.1C368.7,226.1,370.9,228.4,373.7,228.4 M453.6,375.3h57.3c2.7,0,5-2.3,5-5
			v-51c0-2.8-2.3-5-5-5.1h-57.3c-2.7,0-5,2.3-5,5v51.1C448.6,373,450.9,375.3,453.6,375.3"/>
	</g>
</g>
</svg>
