<?xml version="1.0" encoding="utf-8"?>
<!-- Generator: Adobe Illustrator 28.0.0, SVG Export Plug-In . SVG Version: 6.00 Build 0)  -->
<svg version="1.1" id="Camada_1" xmlns="http://www.w3.org/2000/svg" xmlns:xlink="http://www.w3.org/1999/xlink" x="0px" y="0px"
	 viewBox="0 0 1537 1536.9" style="enable-background:new 0 0 1537 1536.9;" xml:space="preserve">
<style type="text/css">
	.st0{fill:#2F3A3E;}
	.st1{fill-rule:evenodd;clip-rule:evenodd;fill:#E63529;}
</style>
<g>
	<g>
		<path class="st0" d="M257.3,38.2h1022.3c121,0,219.1,98.1,219.1,219.1v1022.3c0,121-98.1,219.1-219.1,219.1H257.3
			c-121,0-219.1-98.1-219.1-219.1V257.3C38.3,136.3,136.3,38.2,257.3,38.2z"/>
	</g>
	<g>
		<path id="Layer_00000110459843464749505230000012556576044798010266_" class="st1" d="M171.7,658.1h337.6v222.1H171.7L171.7,658.1
			z M602.7,342.4h331.7v222.1H602.7V342.4z M602.7,972.6h331.7v222.1H602.7V972.6z M1026.5,658.1h338.8v222.1h-338.8V658.1z
			 M509.3,342.4v223.3H171.7v-25.2c13.2-100.9,68.2-180.1,138.9-198.1H509.3z M510.5,972.6v222.1H302.2
			c-67.1-21.6-118.5-98.5-130.5-194.5v-27.6L510.5,972.6z M1365.3,563.2h-338.8V341.1h199.9c70.6,19.2,125.7,98.5,138.9,198.1V563.2
			z M1026.5,1195.8v-222h338.8v27.6c-13.1,96-64.7,171.7-130.5,194.4H1026.5z"/>
	</g>
</g>
</svg>
