<?xml version="1.0" encoding="utf-8"?>
<!-- Generator: Adobe Illustrator 28.0.0, SVG Export Plug-In . SVG Version: 6.00 Build 0)  -->
<svg version="1.1" id="Layer_1" xmlns="http://www.w3.org/2000/svg" xmlns:xlink="http://www.w3.org/1999/xlink" x="0px" y="0px"
	 viewBox="0 0 351 365" style="enable-background:new 0 0 351 365;" xml:space="preserve">
<style type="text/css">
	.st0{fill:#2F3A3E;}
	.st1{fill:url(#SVGID_1_);}
</style>
<g id="Layer_1_1_">
</g>
<g>
	<g>
		<path class="st0" d="M57.7,14.3h235.5c27.9,0,50.5,22.6,50.5,50.5v235.5c0,27.9-22.6,50.5-50.5,50.5H57.7
			c-27.9,0-50.5-22.6-50.5-50.5V64.7C7.3,36.9,29.9,14.3,57.7,14.3z"/>
	</g>
	<g>
		
			<linearGradient id="SVGID_1_" gradientUnits="userSpaceOnUse" x1="175.5" y1="241.8011" x2="175.5" y2="40.2823" gradientTransform="matrix(1 0 0 -1 0 365.8898)">
			<stop  offset="0" style="stop-color:#EA5B2A"/>
			<stop  offset="1" style="stop-color:#FAC908"/>
		</linearGradient>
		<path class="st1" d="M309.2,165.5c-0.5-4.9-1.3-10.5-2.9-16.7c-1.6-6.2-4-13-7.5-20c-3.5-7-8.1-14.3-14.1-21.4
			c-2.3-2.8-4.9-5.5-7.6-8.2c4.1-16.2-5-30.3-5-30.3c-15.7-1-25.6,4.9-29.3,7.5c-0.6-0.2-1.2-0.6-1.8-0.8c-2.7-1-5.4-2.1-8.3-3
			c-2.8-0.9-5.7-1.7-8.7-2.4c-3-0.7-5.9-1.3-9-1.8c-0.6-0.1-1-0.2-1.6-0.2C206.6,46.4,187,37.3,187,37.3c-21.9,13.8-26,33.2-26,33.2
			s-0.1,0.4-0.2,1.1c-1.2,0.3-2.4,0.7-3.6,1c-1.7,0.5-3.4,1.1-5,1.8c-1.7,0.6-3.3,1.3-5,2c-3.3,1.4-6.6,3-9.8,4.8
			c-3.1,1.8-6.2,3.7-9.2,5.7c-0.4-0.2-0.8-0.3-0.8-0.3C97,75,70.1,88.9,70.1,88.9c-2.5,32.2,12.1,52.4,15,56.1c-0.7,2-1.4,4-2,6
			c-2.2,7.3-3.9,14.7-5,22.5c-0.2,1.1-0.3,2.2-0.4,3.4c-28.1,13.8-36.4,42.1-36.4,42.1C64.7,245.7,92,247.4,92,247.4l0.1-0.1
			c3.5,6.2,7.5,12,12,17.5c1.9,2.3,3.9,4.5,5.9,6.6c-8.5,24.3,1.2,44.5,1.2,44.5c26,1,43.1-11.4,46.7-14.2c2.6,0.9,5.2,1.7,7.9,2.3
			c8,2.1,16.2,3.3,24.4,3.6c2,0.1,4.1,0.2,6.1,0.1h1h0.6h1.3l1.3-0.1v0.1c12.3,17.4,33.8,19.9,33.8,19.9
			c15.3-16.1,16.2-32.1,16.2-35.5l0,0c0,0,0-0.1,0-0.2c0-0.3,0-0.5,0-0.5l0,0c0-0.2,0-0.5,0-0.7c3.2-2.2,6.3-4.6,9.2-7.3
			c6.1-5.5,11.5-11.8,16-18.6c0.4-0.6,0.8-1.3,1.2-1.9c17.3,1,29.6-10.7,29.6-10.7c-2.9-18-13.2-26.8-15.3-28.5l0,0
			c0,0-0.1-0.1-0.2-0.2s-0.2-0.2-0.2-0.2l0,0c-0.1-0.1-0.2-0.2-0.4-0.2c0.1-1.1,0.2-2.2,0.2-3.3c0.2-1.9,0.2-3.9,0.2-5.8v-1.4v-0.7
			v-0.4c0-0.5,0-0.3,0-0.5l-0.1-1.2l-0.1-1.6c0-0.6-0.1-1-0.2-1.5c-0.1-0.5-0.1-1-0.2-1.5l-0.2-1.5l-0.2-1.5c-0.3-2-0.6-3.9-1.1-5.9
			c-1.8-7.8-4.9-15.1-8.8-21.8c-4-6.6-9-12.5-14.7-17.4c-5.6-5-12-9-18.6-11.9c-6.7-3-13.6-4.9-20.5-5.8c-3.5-0.5-6.9-0.6-10.4-0.6
			h-1.3h-0.3c-0.1,0-0.5,0-0.4,0h-0.6l-1.3,0.1c-0.5,0-1,0.1-1.4,0.1c-1.8,0.2-3.5,0.4-5.2,0.7c-6.9,1.3-13.4,3.8-19.1,7.2
			c-5.7,3.4-10.7,7.7-14.7,12.5c-4,4.8-7.1,10.2-9.3,15.7c-2.2,5.5-3.4,11.3-3.7,16.8c-0.1,1.4-0.1,2.8-0.1,4.2c0,0.3,0,0.7,0,1
			l0.1,1.1c0.1,0.6,0.1,1.4,0.2,2c0.2,2.8,0.8,5.5,1.5,8.1c1.5,5.2,3.9,9.9,6.9,13.9c3,4,6.6,7.3,10.4,9.9c3.8,2.6,7.9,4.4,11.9,5.6
			c4,1.2,8,1.7,11.8,1.7c0.5,0,1,0,1.4,0c0.2,0,0.5,0,0.7,0c0.2,0,0.5,0,0.7-0.1c0.4,0,0.8-0.1,1.2-0.1c0.1,0,0.2,0,0.3-0.1l0.4-0.1
			c0.2,0,0.5-0.1,0.7-0.1c0.5-0.1,0.9-0.2,1.4-0.2c0.5-0.1,0.9-0.2,1.3-0.3c0.9-0.2,1.7-0.5,2.5-0.7c1.6-0.6,3.2-1.2,4.6-1.9
			c1.4-0.7,2.7-1.6,4-2.4c0.3-0.2,0.7-0.5,1-0.8c1.3-1,1.5-3,0.5-4.2c-0.9-1.1-2.5-1.4-3.8-0.7c-0.3,0.2-0.6,0.3-1,0.5
			c-1.1,0.6-2.2,1-3.5,1.4c-1.2,0.4-2.5,0.7-3.8,1c-0.6,0.1-1.3,0.2-2,0.2c-0.3,0-0.6,0.1-1,0.1c-0.3,0-0.7,0-1,0c-0.3,0-0.6,0-1,0
			c-0.4,0-0.8,0-1.2-0.1c0,0-0.2,0-0.1,0h-0.2h-0.2c-0.2,0-0.4,0-0.6-0.1c-0.4-0.1-0.7-0.1-1.1-0.2c-3-0.4-5.9-1.3-8.8-2.6
			c-2.9-1.3-5.6-3-8.1-5.3c-2.5-2.2-4.7-4.9-6.3-7.9c-1.7-3-2.9-6.4-3.5-9.9c-0.2-1.8-0.4-3.6-0.3-5.4c0-0.5,0.1-1,0.1-1.4
			c0,0.2,0-0.1,0-0.1v-0.2v-0.4c0-0.2,0.1-0.5,0.1-0.7c0.1-1,0.2-1.9,0.4-2.9c1.4-7.7,5.2-15.2,11.2-20.9c1.5-1.4,3.1-2.7,4.8-3.9
			s3.5-2.2,5.5-3.1c1.9-0.9,3.9-1.6,5.9-2.2c2-0.6,4.1-0.9,6.3-1.1c1-0.1,2.1-0.2,3.2-0.2c0.3,0,0.5,0,0.7,0h0.9h0.6
			c0.2,0,0,0,0.1,0h0.2l0.9,0.1c2.3,0.2,4.6,0.5,6.8,1c4.5,1,8.9,2.6,13,4.9c8.2,4.6,15.2,11.6,19.4,20.1c2.2,4.2,3.7,8.8,4.4,13.5
			c0.2,1.2,0.3,2.4,0.4,3.6l0.1,0.9l0.1,0.9c0,0.3,0,0.6,0,0.9c0,0.3,0,0.6,0,0.9v0.8v0.9c0,0.6-0.1,1.5-0.1,2.1
			c-0.1,1.3-0.2,2.6-0.4,3.9c-0.2,1.3-0.4,2.6-0.6,3.8c-0.2,1.3-0.6,2.6-0.9,3.8c-0.6,2.5-1.4,5-2.4,7.4c-1.9,4.8-4.5,9.4-7.5,13.7
			c-6.2,8.5-14.6,15.4-24.3,19.8c-4.8,2.2-9.9,3.8-15.1,4.6c-2.6,0.5-5.2,0.7-7.9,0.8h-0.5h-0.4h-0.9h-1.3h-0.6c0.3,0-0.1,0-0.1,0
			h-0.2c-1.4,0-2.8-0.1-4.3-0.2c-5.6-0.4-11.2-1.4-16.6-3c-5.4-1.5-10.6-3.7-15.6-6.2c-9.9-5.3-18.8-12.5-25.7-21.2
			c-3.5-4.3-6.5-9-9-13.9c-2.5-4.9-4.5-10.1-5.9-15.3c-1.4-5.3-2.3-10.6-2.7-16.1l-0.1-1v-0.2v-0.2v-0.5v-0.9v-0.2v-0.3v-0.6v-1.3
			v-0.2c0,0,0,0.1,0-0.1v-0.5c0-0.6,0-1.4,0-2c0.1-2.6,0.3-5.4,0.6-8.2c0.3-2.7,0.8-5.5,1.4-8.2s1.2-5.4,2-8.2
			c1.5-5.4,3.5-10.6,5.7-15.4c4.6-9.8,10.5-18.5,17.7-25.4c1.8-1.8,3.6-3.4,5.5-5c1.9-1.5,3.9-3,6-4.3c2-1.4,4.2-2.6,6.3-3.7
			c1-0.6,2.2-1.1,3.3-1.6c0.6-0.2,1.1-0.5,1.7-0.7c0.6-0.2,1.1-0.5,1.7-0.7c2.2-1,4.6-1.8,7-2.5c0.6-0.2,1.2-0.3,1.8-0.6
			c0.6-0.2,1.2-0.3,1.8-0.5c1.2-0.3,2.4-0.6,3.6-0.9c0.6-0.2,1.2-0.2,1.8-0.4c0.6-0.2,1.2-0.2,1.8-0.4c0.6-0.1,1.2-0.2,1.8-0.3
			l0.9-0.2l1-0.2c0.6-0.1,1.2-0.2,1.8-0.2c0.7-0.1,1.4-0.2,2.1-0.2c0.6-0.1,1.5-0.2,2.1-0.2c0.4-0.1,0.9-0.1,1.3-0.2l0.9-0.1
			l0.4-0.1h0.5c0.7-0.1,1.4-0.1,2.1-0.2l1-0.1c0,0,0.4,0,0.1,0h0.2h0.5c0.6,0,1.2-0.1,1.8-0.1c2.3-0.1,4.7-0.1,7.1,0
			c4.7,0.2,9.2,0.7,13.7,1.5c8.9,1.7,17.3,4.5,24.9,8.2c7.6,3.7,14.4,8.2,20.3,13.2c0.4,0.3,0.7,0.6,1.1,1c0.3,0.3,0.7,0.6,1,1
			c0.7,0.6,1.4,1.3,2.1,1.9c0.7,0.6,1.4,1.3,2,1.9c0.6,0.6,1.3,1.3,1.9,2c2.5,2.6,4.8,5.3,6.9,8c4.2,5.4,7.5,10.8,10.2,15.9
			c0.2,0.3,0.3,0.6,0.5,1c0.2,0.3,0.3,0.6,0.5,1c0.3,0.6,0.6,1.3,0.9,1.9c0.3,0.6,0.6,1.2,0.9,1.8c0.2,0.6,0.6,1.2,0.8,1.8
			c1,2.4,1.9,4.7,2.7,6.9c1.2,3.5,2.1,6.6,2.8,9.4c0.2,1.1,1.3,1.8,2.4,1.7c1.2-0.1,2.1-1,2.1-2.2
			C309.7,172.8,309.6,169.4,309.2,165.5z"/>
	</g>
</g>
</svg>
