<?xml version="1.0" encoding="utf-8"?>
<!-- Generator: Adobe Illustrator 28.0.0, SVG Export Plug-In . SVG Version: 6.00 Build 0)  -->
<svg version="1.1" id="Camada_1" xmlns="http://www.w3.org/2000/svg" xmlns:xlink="http://www.w3.org/1999/xlink" x="0px" y="0px"
	 viewBox="0 0 512 512" style="enable-background:new 0 0 512 512;" xml:space="preserve">
<style type="text/css">
	.st0{fill:#1D1D1B;}
	.st1{stroke:#FCFCFC;stroke-width:22.85;stroke-linejoin:round;stroke-miterlimit:4.57;}
	.st2{opacity:0.2;fill:#FFFFFF;enable-background:new    ;}
	.st3{fill:#FDCB47;stroke:#000000;stroke-width:43.2585;stroke-miterlimit:4.57;}
	.st4{fill:#FDCB47;}
	.st5{opacity:0.3;enable-background:new    ;}
	.st6{fill:#D31C1B;}
	.st7{opacity:0.2;enable-background:new    ;}
</style>
<g>
	<path class="st0" d="M85.2,12h341.6c40.4,0,73.2,32.8,73.2,73.2v341.6c0,40.4-32.8,73.2-73.2,73.2H85.2C44.8,500,12,467.2,12,426.8
		V85.2C12,44.8,44.8,12,85.2,12z"/>
	<g transform="matrix(1.1425 0 0 1.1425 -31.116 -15.453)">
		<g>
			<path class="st1" d="M243.4,64.3c-7.8,0-8.6,1.1-10,13.1c-1.1,9.7-6.8,45.5-8.6,54.7l-1,4.9h-6c-10.5,0-20,5-20,10.6
				c0,4.6,5.3,8.6,12.7,9.7l4,0.6l-9.4,12.1l0.5,14.4c0.3,7.9,0.8,16,1.1,17.9l0.6,3.5l-8.3-0.6c-12.3-0.9-12-1.4-11.9,22.8
				c0.1,10.6,0.4,21.6,0.7,24.6l0.4,4l-44.7,23.6l23.2,69.3l234.5,8.1c22.3,11.1,35.1,24,25.1-3.2c-5.4-14.6-15.9-42.9-30-81.2
				c-4.6-12.4-9.3-23.8-10.5-25.4c-2.5-3.2-10.4-7.6-13.5-7.6c-1.1,0-2.3-0.7-2.6-1.5c-0.3-0.8-0.6-8.1-0.6-16.2
				c0-8.1-0.3-14.9-0.7-15.1c-0.7-0.3-13.2-14.9-17.8-20.8c-2.1-2.7-2.5-2.8-11.6-3.3l-9.5-0.5l-8.5-5.6c-4.7-3.1-9.6-5.9-11.1-6.3
				c-2.5-0.6-2.6-0.9-2.1-5.2c0.3-3,2.4-8.5,6.3-16.5c20.2-41.4,21.7-45,21.1-48.3c-0.9-4.8-4.6-7.8-16.7-13.8
				C290,73.2,260.8,64.3,243.4,64.3L243.4,64.3z M304.4,187.1l3.7,0.6c2.1,0.3,4.1,0.8,4.5,1.1c0.4,0.3,0.5,2.5,0.2,5.1
				c-0.5,4.4-0.4,4.8,3.3,8.8c3.4,3.7,3.9,4.7,3.9,8.7c0,8.8,4.1,17.3,13.1,27.2c7.4,8.1,7.9,10.3,2.6,10.3c-3.5,0-6.1,1.3-7.4,3.7
				c-1.1,2.1-0.2,4.3,3.3,8.6c1.2,1.4,3.2,4.8,4.5,7.5c3.7,7.8,12.7,35.2,12.7,38.6c0,1.7-0.4,3.1-0.9,3.1c-0.5,0-2.5-2.2-4.6-5
				c-5.2-7-15.4-16.1-22.5-19.9c-14.7-8-23.3-14.4-25.7-19c-1.4-2.6-1.3-2.7,9.3-15c14.2-16.4,14.2-17.5,0.1-26.1l-4.6-2.8l3-1.3
				c1.6-0.7,3.2-1.9,3.5-2.6c0.3-0.8-1-4.7-2.8-8.8c-3.7-8.3-4-10-1.8-12.4c0.8-0.9,1.7-3.6,2-6L304.4,187.1z M327,193.8
				c1.7,0,4.1,2.2,4.1,3.7c0,2.7-1.6,3.1-3.2,0.8C326.5,196.2,326,193.8,327,193.8L327,193.8z"/>
			<path d="M243.4,64.3c-7.8,0-8.6,1.1-10,13.1c-1.1,9.7-6.8,45.5-8.6,54.7l-1,4.9h-6c-10.5,0-20,5-20,10.6c0,4.6,5.3,8.6,12.7,9.7
				l4,0.6l-9.4,12.1l0.5,14.4c0.3,7.9,0.8,16,1.1,17.9l0.6,3.5l-8.3-0.6c-12.3-0.9-12-1.4-11.9,22.8c0.1,10.6,0.4,21.6,0.7,24.6
				l0.4,4l-44.7,23.6l23.2,96.2h234.5l30.4-2.8c0-3.9-1.3-8.6-5.2-19.1c-5.4-14.6-15.9-42.9-30-81.2c-4.6-12.4-9.3-23.8-10.5-25.4
				c-2.5-3.2-10.4-7.6-13.5-7.6c-1.1,0-2.3-0.7-2.6-1.5c-0.3-0.8-0.6-8.1-0.6-16.2c0-8.1-0.3-14.9-0.7-15.1
				c-0.7-0.3-13.2-14.9-17.8-20.8c-2.1-2.7-2.5-2.8-11.6-3.3l-9.5-0.5l-8.5-5.6c-4.7-3.1-9.6-5.9-11.1-6.3c-2.5-0.6-2.6-0.9-2.1-5.2
				c0.3-3,2.4-8.5,6.3-16.5c20.2-41.4,21.7-45,21.1-48.3c-0.9-4.8-4.6-7.8-16.7-13.8C290,73.3,260.8,64.3,243.4,64.3L243.4,64.3z
				 M304.4,187.1l3.7,0.6c2.1,0.3,4.1,0.8,4.5,1.1c0.4,0.3,0.5,2.5,0.2,5.1c-0.5,4.4-0.4,4.8,3.3,8.8c3.4,3.7,3.9,4.7,3.9,8.7
				c0,8.8,4.1,17.3,13.1,27.2c7.4,8.1,7.9,10.3,2.6,10.3c-3.5,0-6.1,1.3-7.4,3.7c-1.1,2.1-0.2,4.3,3.3,8.6c1.2,1.4,3.2,4.8,4.5,7.5
				c3.7,7.8,12.7,35.2,12.7,38.6c0,1.7-0.4,3.1-0.9,3.1c-0.5,0-2.5-2.2-4.6-5c-5.2-7-15.4-16.1-22.5-19.9c-14.7-8-23.3-14.4-25.7-19
				c-1.4-2.6-1.3-2.7,9.3-15c14.2-16.4,14.2-17.5,0.1-26.1l-4.6-2.8l3-1.3c1.6-0.7,3.2-1.9,3.5-2.6c0.3-0.8-1-4.7-2.8-8.8
				c-3.7-8.3-4-10-1.8-12.4c0.8-0.9,1.7-3.6,2-6L304.4,187.1z M327,193.8c1.7,0,4.1,2.2,4.1,3.7c0,2.7-1.6,3.1-3.2,0.8
				C326.5,196.2,326,193.8,327,193.8L327,193.8z"/>
			<path class="st2" d="M243.4,64.3c-7.8,0-8.6,1.1-10,13.1c-1.1,9.7-6.8,45.5-8.6,54.7l-1,4.9h-6c-10.5,0-20,5-20,10.6
				c0,1.7,0.7,3.3,2,4.8c3.3-3.6,10.4-6.2,18-6.2h6l1-4.9c1.8-9.2,7.5-45,8.6-54.7c1.4-12,2.2-13.1,10-13.1c17.3,0,46.6,9,75.3,23.1
				c9.2,4.5,13.6,7.4,15.5,10.6c1.3-3.5,1.4-4.8,1.2-6.1c-0.9-4.8-4.6-7.8-16.7-13.8C290,73.2,260.8,64.3,243.4,64.3L243.4,64.3z
				 M208.3,166.1l-3.1,4l0.3,8.8l4.4-5.7l4.7-6.1l-4-0.6C209.8,166.4,209.1,166.2,208.3,166.1L208.3,166.1z M309.1,170.7
				c-0.6,1.8-1,3.2-1.1,4.4c-0.4,4.3-0.3,4.6,2.1,5.2c1.4,0.4,6.4,3.2,11.1,6.3l8.5,5.6l9.5,0.5c9.1,0.5,9.5,0.6,11.6,3.3
				c4.6,5.9,17.1,20.5,17.8,20.8c0.4,0.2,0.7,7,0.7,15.1c0,8.1,0.3,15.4,0.6,16.2c0.3,0.8,1.5,1.5,2.6,1.5c3.2,0,11,4.4,13.5,7.6
				c1.2,1.6,6,13,10.5,25.4c14.1,38.3,24.6,66.6,30,81.2c1.9,5,3.1,8.7,3.9,11.6l1.3-1.7c0-3.9-1.3-8.6-5.2-19.1
				c-5.4-14.6-15.9-42.9-30-81.2c-4.6-12.4-9.3-23.8-10.5-25.4c-2.5-3.2-10.4-7.6-13.5-7.6c-1.1,0-2.3-0.7-2.6-1.5
				c-0.3-0.8-0.6-8.1-0.6-16.2c0-8.1-0.3-14.9-0.7-15.1c-0.7-0.3-13.2-14.9-17.8-20.8c-2.1-2.7-2.5-2.8-11.6-3.3l-9.5-0.5l-8.5-5.6
				c-4.7-3.1-9.6-5.9-11.1-6.3C309.8,171,309.4,170.8,309.1,170.7L309.1,170.7z M327,203c-1,0-0.5,2.4,0.9,4.5
				c1.6,2.3,3.2,2,3.2-0.8C331.2,205.2,328.7,203,327,203L327,203z M193.5,205c-6.2,0.1-6.3,3.3-6.2,20.6c0.2-12.3,2-11.8,11.9-11.1
				l8.3,0.6l-0.6-3.5c-0.2-0.9-0.3-3-0.5-5.8l-7.1-0.5C196.9,205.2,195,205,193.5,205L193.5,205z M302.2,206.2
				c-0.1,0.1-0.2,0.3-0.3,0.4c-2.2,2.4-1.9,4.1,1.8,12.4c0.2,0.5,0.4,1,0.6,1.5c1.1-0.6,2-1.4,2.2-1.9c0.3-0.8-1-4.7-2.8-8.8
				C303.1,208.4,302.6,207.3,302.2,206.2L302.2,206.2z M306.4,226.4c0.1,0.7,0.2,1.2,0.1,1.4c-0.3,0.8-1.9,1.9-3.5,2.6l-3,1.3
				l4.6,2.8c4,2.4,6.9,4.3,8.6,6C317.3,234.2,315,231.7,306.4,226.4L306.4,226.4z M334.1,248.9c-2.7,0.3-4.7,1.6-5.8,3.6
				c-0.9,1.8-0.4,3.7,2,6.9c1.4-1,3.2-1.5,5.3-1.5C340.7,258,340.4,256,334.1,248.9L334.1,248.9z M187.8,257.1l-44,23.2l1.5,8.4
				l43.2-22.8l-0.4-4C188,261,187.9,259.2,187.8,257.1L187.8,257.1z M297.2,269.2c-3.1,3.9-2.9,4.6-2,6.4c2.4,4.6,11,11,25.7,19
				c7.1,3.9,17.3,12.9,22.5,19.9c2,2.7,4.1,5,4.6,5c0.5,0,0.9-1.4,0.9-3.1c0-0.9-0.6-3.3-1.5-6.5c-0.9-0.7-2.4-2.5-4-4.6
				c-5.2-7-15.4-16.1-22.5-19.9C309,278.9,301.1,273.5,297.2,269.2L297.2,269.2z"/>
		</g>
		<path class="st3" d="M76,204.6v6.6h8.7c5.7,0,11.1,1.4,16.2,4.3c3.8,2.1,6.3,4.7,7.5,7.6c1.5,3.9,2.3,12,2.3,24.2v121.5
			c0,10-1.4,16.9-4.3,20.8c-2.7,3.9-5.5,5-8.9,5.9c-9.9,2.7-26.7,5.3-26.7,6.4c0,2.8-0.1,5.2,12.3,5.2c46.3,0,61.7-17.4,61.7-41
			V247.3c0-14.5,1.4-23.6,4.3-27.4c4.5-5.8,11.7-8.7,21.5-8.7h8.7v-6.6L76,204.6z M262.1,253.9l-24.1,9.8l1.2,3.1
			c2.8-0.9,4.7-1.4,6-1.4c1.5,0,2.7,0.4,3.6,1.1c0.9,0.8,1.6,2.2,2,4.3c0.5,2.1,0.7,7.8,0.7,17v72.9c0,5-0.4,8.4-1.1,10
			c-0.7,1.6-1.6,2.8-2.8,3.3c-2.1,1.1-4.9,1.7-8.4,1.7v3.2h39.9v-3.2c-4.1,0-7-0.4-8.7-1.3c-1.6-0.9-2.8-2.1-3.4-3.4
			c-0.6-1.3-0.9-4.8-0.9-10.3v-42.5c4.3-4.6,8.1-7.7,11.2-9.2c3.1-1.5,6.1-2.3,9-2.3c2.8,0,5.2,0.7,7.2,2.1c2,1.3,3.4,3.4,4.3,6.2
			c0.9,2.8,1.4,8.5,1.4,17.3v28.5c0,4.6-0.1,7.3-0.3,8.3c-0.6,2.2-1.6,3.9-3.1,5.1c-1.5,1.1-4.1,1.7-7.8,1.7h-1.8v3.2h39.6v-3.2
			c-3.8,0-6.3-0.4-7.7-1.2c-1.4-0.8-2.4-1.9-3-3.3c-0.8-1.9-1.2-5.4-1.2-10.5v-28.5c0-10-0.6-16.8-1.7-20.6c-1.6-5.4-4-9.4-7.3-11.9
			c-3.3-2.5-7.2-3.8-11.8-3.8c-3.8,0-7.6,1-11.4,3.1c-3.8,2-9,6.6-15.5,13.7v-58.9L262.1,253.9z M191.9,296c-6.7,0-13,1.8-19,5.3
			c-6,3.5-10.8,8.9-14.5,16.2c-3.6,7.3-5.5,14.6-5.5,22c0,10.1,3,19.3,9.1,27.4c7.2,9.7,16.8,14.5,28.9,14.5
			c7.4,0,14.2-1.9,20.2-5.6c6.1-3.8,10.9-9.3,14.3-16.7c3.5-7.4,5.2-14.7,5.2-21.9c0-10.3-3.1-19.3-9.4-27.3
			C213.9,300.6,204.1,296,191.9,296L191.9,296z M352.2,296l-24.3,9.8l1.3,3.2c2.3-0.9,4.3-1.3,5.9-1.3c1.5,0,2.7,0.4,3.6,1.1
			c0.9,0.8,1.6,2.2,2,4.3c0.5,2.1,0.7,8,0.7,17.7v29.9c0,5.9-0.7,9.8-2.2,12c-1.4,2.1-4.2,3.1-8.3,3.1h-1.8v3.2h39.8v-3.2
			c-4.4,0-7.3-0.4-8.8-1.1c-1.4-0.8-2.5-2.1-3.3-3.8c-0.6-1.3-1-4.7-1-10.1v-42.5c6.9-7.6,13.9-11.4,20.8-11.4c4.5,0,7.7,1.7,9.6,5
			c1.9,3.3,2.9,8.6,2.9,15.9v33c0,4.6-0.1,7.4-0.4,8.3c-0.6,2.2-1.6,3.9-3.2,5.1c-1.5,1.1-4.1,1.7-7.8,1.7h-1.7v3.2h39.8v-3.2
			c-3.9,0-6.5-0.4-8-1.2c-1.4-0.8-2.4-2-3.1-3.4c-0.8-1.8-1.2-5.3-1.2-10.4v-34.4c0-7.3-0.6-12.7-1.9-16.2c-1.9-5-4.4-8.6-7.6-10.8
			c-3.2-2.2-6.9-3.3-11.3-3.3c-8.6,0-17.6,5.7-27,17.1V296L352.2,296z M189.2,301.7c6.4,0,11.7,2.8,15.9,8.4
			c6.2,8.2,9.2,19.5,9.2,33.8c0,11.4-1.8,19.5-5.5,24.2c-3.7,4.7-8.4,7-14.1,7c-7.6,0-13.8-4.2-18.5-12.7
			c-4.6-8.5-6.9-18.6-6.9-30.3c0-7.3,1-13.2,2.9-17.8c1.9-4.6,4.5-7.9,7.6-9.7C182.9,302.7,186.1,301.7,189.2,301.7L189.2,301.7z"/>
		<g>
			<path class="st4" d="M76,198.9V215h8.7c5.7,0,11.1,1.4,16.2,4.3c3.8,2.1,6.3,4.7,7.5,7.7c1.5,3.9,2.3,12,2.3,24.2v121.5
				c0,10-1.4,4.2-4.3,8.1c-2.7,3.9-5.5,5-8.9,5.9c-9.9,2.7-26.7,5.3-26.7,6.4c0,2.8-0.1,17.9,12.3,17.9c46.3,0,61.7-17.4,61.7-41
				V251.1c0-14.5,1.4-23.6,4.3-27.4c4.5-5.8,11.7-8.7,21.5-8.7h8.7v-16.1L76,198.9z M266.2,245l-4,0l-24.1,9.8l1.2,15.8
				c2.8-0.9,4.7-1.4,6-1.4c1.5,0,2.7,0.4,3.6,1.1c0.9,0.8,1.6,2.2,2,4.3c0.5,2.1,0.7,7.8,0.7,17v60.2c0,5-0.4,8.4-1.1,10
				c-0.7,1.6-1.6,2.8-2.8,3.3c-2.1,1.1-4.9,1.7-8.4,1.7v15.9h39.9v-15.9c-4.1,0-7-0.4-8.7-1.3c-1.6-0.9-2.8-2.1-3.4-3.4
				c-0.6-1.3-0.9-4.8-0.9-10.3V322c4.3-4.6,8.1-7.7,11.2-9.2c3.1-1.5,6.1-2.3,9-2.3c2.8,0,5.2,0.7,7.2,2.1c2,1.3,3.4,3.4,4.3,6.2
				c0.9,2.8,1.4,8.5,1.4,17.3v15.8c0,4.6-0.1,7.3-0.3,8.3c-0.6,2.2-1.6,3.9-3.1,5.1c-1.5,1.1-5.9,4.9-7.8,1.7h-1.8v15.9h39.6v-15.9
				c-3.8,0-6.3-0.4-7.7-1.2c-1.4-0.8-2.4-1.9-3-3.3c-0.8-1.9-1.2-5.4-1.2-10.5V336c0-10-0.6-29.5-1.7-33.3c-1.6-5.4-4-9.4-7.3-11.9
				c-3.3-2.5-7.2-3.8-11.8-3.8c-3.8,0-7.6,1-11.4,3.1c-3.8,2-9,6.6-15.5,13.7L266.2,245z M191.9,287.1c-6.7,0-13,1.8-19,5.3
				c-6,3.5-10.8,21.5-14.5,28.9c-3.6,7.3-5.5,14.6-5.5,22c0,10.1,3,19.3,9.1,27.4c7.2,9.7,16.8,14.5,28.9,14.5
				c7.4,0,14.2-1.9,20.2-5.6c6.1-3.8,10.9-9.3,14.3-16.7c3.5-7.4,5.2-14.7,5.2-21.9c0-10.3-3.1-32-9.4-39.9
				C213.8,291.8,204.1,287.1,191.9,287.1L191.9,287.1z M352.2,287.1L328,297l1.3,15.9c2.3-0.9,4.3-1.3,5.9-1.3
				c1.5,0,2.7,0.4,3.6,1.1c0.9,0.8,1.6,2.2,2,4.3c0.5,2.1,0.7,8,0.7,17.7v17.2c0,5.9-0.7,9.8-2.2,12c-1.4,2.1-6.3,6.7-8.3,3.1h-1.8
				v15.9h39.8v-15.9c-4.4,0-7.3-0.4-8.8-1.1c-1.4-0.8-2.5-2.1-3.3-3.8c-0.6-1.3-1-4.7-1-10.1v-29.8c6.9-7.6,13.9-11.4,20.8-11.4
				c4.5,0,7.7,1.7,9.6,5c1.9,3.3,2.9,8.6,2.9,15.9v20.3c0,4.6-0.1,7.4-0.4,8.3c-0.6,2.2-1.6,3.9-3.2,5.1c-1.5,1.1-6.1,5-7.8,1.7
				h-1.7v15.9h39.8v-15.9c-3.9,0-6.5-0.4-8-1.2c-1.4-0.8-2.4-2-3.1-3.4c-0.8-1.8-1.2-5.3-1.2-10.4v-21.7c0-7.3-0.6-25.3-1.9-28.9
				c-1.9-5-4.4-8.6-7.6-10.8c-3.2-2.2-6.9-3.3-11.3-3.3c-8.6,0-17.6,5.7-27,17.1v-17.1L352.2,287.1z M189.2,305.5L189.2,305.5
				c6.4,0,11.8,2.8,15.9,8.4c6.2,8.2,9.2,19.5,9.2,33.8c0,11.4-1.8,6.8-5.5,11.5c-3.7,4.7-8.4,7-14.1,7c-7.6,0-13.8-4.2-18.5-12.7
				c-4.6-8.5-7-5.9-7-17.6c0-7.3,1-13.2,2.9-17.8c1.9-4.6,4.5-7.9,7.6-9.7C182.9,306.5,186.1,305.5,189.2,305.5L189.2,305.5z"/>
			<path class="st5" d="M76,198.9V215h8.7c5.7,0,11.1,1.4,16.2,4.3c3.8,2.1,6.3,4.7,7.5,7.7c1.5,3.9,2.3,12,2.3,24.2v121.5
				c0,10-1.4,4.2-4.3,8.1c-2.7,3.9-5.5,5-8.9,5.9c-9.9,2.7-26.7,5.3-26.7,6.4c0,2.8-0.1,17.9,12.3,17.9c46.3,0,61.7-17.4,61.7-41
				V251.1c0-14.5,1.4-23.6,4.3-27.4c4.5-5.8,11.7-8.7,21.5-8.7h8.7v-16.1L76,198.9z M266.2,245l-4,0l-24.1,9.8l1.2,15.8
				c2.8-0.9,4.7-1.4,6-1.4c1.5,0,2.7,0.4,3.6,1.1c0.9,0.8,1.6,2.2,2,4.3c0.5,2.1,0.7,7.8,0.7,17v60.2c0,5-0.4,8.4-1.1,10
				c-0.7,1.6-1.6,2.8-2.8,3.3c-2.1,1.1-4.9,1.7-8.4,1.7v15.9h39.9v-15.9c-4.1,0-7-0.4-8.7-1.3c-1.6-0.9-2.8-2.1-3.4-3.4
				c-0.6-1.3-0.9-4.8-0.9-10.3V322c4.3-4.6,8.1-7.7,11.2-9.2c3.1-1.5,6.1-2.3,9-2.3c2.8,0,5.2,0.7,7.2,2.1c2,1.3,3.4,3.4,4.3,6.2
				c0.9,2.8,1.4,8.5,1.4,17.3v15.8c0,4.6-0.1,7.3-0.3,8.3c-0.6,2.2-1.6,3.9-3.1,5.1c-1.5,1.1-4.1,1.7-7.8,1.7h-1.8v15.9h39.6v-15.9
				c-3.8,0-6.3-0.4-7.7-1.2c-1.4-0.8-2.4-1.9-3-3.3c-0.8-1.9-1.2-5.4-1.2-10.5V336c0-10-0.6-29.5-1.7-33.3c-1.6-5.4-4-9.4-7.3-11.9
				c-3.3-2.5-7.2-3.8-11.8-3.8c-3.8,0-7.6,1-11.4,3.1c-3.8,2-9,6.6-15.5,13.7L266.2,245z M191.9,287.1c-6.7,0-13,1.8-19,5.3
				c-6,3.5-10.8,21.5-14.5,28.9c-3.6,7.3-5.5,14.6-5.5,22c0,10.1,3,19.3,9.1,27.4c7.2,9.7,16.8,14.5,28.9,14.5
				c7.4,0,14.2-1.9,20.2-5.6c6.1-3.8,10.9-9.3,14.3-16.7c3.5-7.4,5.2-14.7,5.2-21.9c0-10.3-3.1-32-9.4-39.9
				C213.8,291.8,204.1,287.1,191.9,287.1L191.9,287.1z M352.2,287.1L328,297l1.3,15.9c2.3-0.9,4.3-1.3,5.9-1.3
				c1.5,0,2.7,0.4,3.6,1.1c0.9,0.8,1.6,2.2,2,4.3c0.5,2.1,0.7,8,0.7,17.7v17.2c0,5.9-0.7,9.8-2.2,12c-1.4,2.1-6.3,6.7-8.3,3.1h-1.8
				v15.9h39.8v-15.9c-4.4,0-7.3-0.4-8.8-1.1c-1.4-0.8-2.5-2.1-3.3-3.8c-0.6-1.3-1-4.7-1-10.1v-29.8c6.9-7.6,13.9-11.4,20.8-11.4
				c4.5,0,7.7,1.7,9.6,5c1.9,3.3,2.9,8.6,2.9,15.9v20.3c0,4.6-0.1,7.4-0.4,8.3c-0.6,2.2-1.6,3.9-3.2,5.1c-1.5,1.1-4.1,1.7-7.8,1.7
				h-1.7v15.9h39.8v-15.9c-3.9,0-6.5-0.4-8-1.2c-1.4-0.8-2.4-2-3.1-3.4c-0.8-1.8-1.2-5.3-1.2-10.4v-21.7c0-7.3-0.6-25.3-1.9-28.9
				c-1.9-5-4.4-8.6-7.6-10.8c-3.2-2.2-6.9-3.3-11.3-3.3c-8.6,0-17.6,5.7-27,17.1v-17.1L352.2,287.1z M189.2,305.5L189.2,305.5
				c6.4,0,11.8,2.8,15.9,8.4c6.2,8.2,9.2,19.5,9.2,33.8c0,11.4-1.8,6.8-5.5,11.5c-3.7,4.7-8.4,7-14.1,7c-7.6,0-13.8-4.2-18.5-12.7
				c-4.6-8.5-7-5.9-7-17.6c0-7.3,1-13.2,2.9-17.8c1.9-4.6,4.5-7.9,7.6-9.7C182.9,306.5,186.1,305.5,189.2,305.5L189.2,305.5z"/>
			<path class="st4" d="M76,195.7v6.6h8.7c5.7,0,11.1,1.4,16.2,4.3c3.8,2.1,6.3,4.7,7.5,7.6c1.5,3.9,2.3,12,2.3,24.2v121.5
				c0,10-1.4,16.9-4.3,20.8c-2.7,3.9-5.5,5-8.9,5.9c-9.9,2.7-26.7,5.3-26.7,6.4c0,2.8-0.1,5.2,12.3,5.2c46.3,0,61.7-17.4,61.7-41
				V238.4c0-14.5,1.4-23.6,4.3-27.4c4.5-5.8,11.7-8.7,21.5-8.7h8.7v-6.6L76,195.7z M262.1,245l-24.1,9.8l1.2,3.1
				c2.8-0.9,4.7-1.4,6-1.4c1.5,0,2.7,0.4,3.6,1.1c0.9,0.8,1.6,2.2,2,4.3c0.5,2.1,0.7,7.8,0.7,17v72.9c0,5-0.4,8.4-1.1,10
				c-0.7,1.6-1.6,2.8-2.8,3.3c-2.1,1.1-4.9,1.7-8.4,1.7v3.2h39.9v-3.2c-4.1,0-7-0.4-8.7-1.3c-1.6-0.9-2.8-2.1-3.4-3.4
				c-0.6-1.3-0.9-4.8-0.9-10.3v-42.5c4.3-4.6,8.1-7.7,11.2-9.2c3.1-1.5,6.1-2.3,9-2.3c2.8,0,5.2,0.7,7.2,2.1c2,1.3,3.4,3.4,4.3,6.2
				c0.9,2.8,1.4,8.5,1.4,17.3v28.5c0,4.6-0.1,7.3-0.3,8.3c-0.6,2.2-1.6,3.9-3.1,5.1c-1.5,1.1-4.1,1.7-7.8,1.7h-1.8v3.2h39.6v-3.2
				c-3.8,0-6.3-0.4-7.7-1.2c-1.4-0.8-2.4-1.9-3-3.3c-0.8-1.9-1.2-5.4-1.2-10.5v-28.5c0-10-0.6-16.8-1.7-20.6
				c-1.6-5.4-4-9.4-7.3-11.9c-3.3-2.5-7.2-3.8-11.8-3.8c-3.8,0-7.6,1-11.4,3.1c-3.8,2-9,6.6-15.5,13.7V245L262.1,245z M191.9,287.1
				c-6.7,0-13,1.8-19,5.3c-6,3.5-10.8,8.9-14.5,16.2c-3.6,7.3-5.5,14.6-5.5,22c0,10.1,3,19.3,9.1,27.4c7.2,9.7,16.8,14.5,28.9,14.5
				c7.4,0,14.2-1.9,20.2-5.6c6.1-3.8,10.9-9.3,14.3-16.7c3.5-7.4,5.2-14.7,5.2-21.9c0-10.3-3.1-19.3-9.4-27.3
				C213.9,291.8,204.1,287.1,191.9,287.1L191.9,287.1z M352.2,287.1L328,297l1.3,3.2c2.3-0.9,4.3-1.3,5.9-1.3c1.5,0,2.7,0.4,3.6,1.1
				c0.9,0.8,1.6,2.2,2,4.3c0.5,2.1,0.7,8,0.7,17.7v29.9c0,5.9-0.7,9.8-2.2,12c-1.4,2.1-4.2,3.1-8.3,3.1h-1.8v3.2h39.8v-3.2
				c-4.4,0-7.3-0.4-8.8-1.1c-1.4-0.8-2.5-2.1-3.3-3.8c-0.6-1.3-1-4.7-1-10.1v-42.5c6.9-7.6,13.9-11.4,20.8-11.4c4.5,0,7.7,1.7,9.6,5
				c1.9,3.3,2.9,8.6,2.9,15.9v33c0,4.6-0.1,7.4-0.4,8.3c-0.6,2.2-1.6,3.9-3.2,5.1c-1.5,1.1-4.1,1.7-7.8,1.7h-1.7v3.2h39.8v-3.2
				c-3.9,0-6.5-0.4-8-1.2c-1.4-0.8-2.4-2-3.1-3.4c-0.8-1.8-1.2-5.3-1.2-10.4v-34.4c0-7.3-0.6-12.7-1.9-16.2c-1.9-5-4.4-8.6-7.6-10.8
				c-3.2-2.2-6.9-3.3-11.3-3.3c-8.6,0-17.6,5.7-27,17.1v-17.1L352.2,287.1z M189.2,292.8c6.4,0,11.7,2.8,15.9,8.4
				c6.2,8.2,9.2,19.5,9.2,33.8c0,11.4-1.8,19.5-5.5,24.2c-3.7,4.7-8.4,7-14.1,7c-7.6,0-13.8-4.2-18.5-12.7
				c-4.6-8.5-6.9-18.6-6.9-30.3c0-7.3,1-13.2,2.9-17.8c1.9-4.6,4.5-7.9,7.6-9.7C182.9,293.8,186.1,292.8,189.2,292.8L189.2,292.8z"
				/>
		</g>
		<path class="st6" d="M302.1,180.6c0.5-1,1.1-4.2,1.2-7.2l0.2-5.5l-8.4-4.4c-17.8-9.3-52.9-22.8-63.8-24.6
			c-3.6-0.6-3.8-0.5-3.8,1.7c0,2,0.9,2.6,6.8,4.9c16.4,6.3,39.1,19.4,57.5,33C297.6,182.7,300.7,183.3,302.1,180.6L302.1,180.6z"/>
		<path class="st7" d="M228.6,138.6c-0.9,0.1-1,0.6-1,2c0,0.7,0.1,1.3,0.6,1.8c0.5-0.2,1.4-0.1,3.2,0.2c10.9,1.7,46,15.3,63.8,24.6
			l8.2,4.3l0.2-3.6l-8.4-4.4c-17.8-9.3-52.9-22.8-63.8-24.6C230.1,138.7,229.2,138.6,228.6,138.6L228.6,138.6z"/>
	</g>
</g>
</svg>
