<?xml version="1.0" encoding="utf-8"?>
<!-- Generator: Adobe Illustrator 28.0.0, SVG Export Plug-In . SVG Version: 6.00 Build 0)  -->
<svg version="1.1" id="Camada_1" xmlns="http://www.w3.org/2000/svg" xmlns:xlink="http://www.w3.org/1999/xlink" x="0px" y="0px"
	 viewBox="0 0 512 512" style="enable-background:new 0 0 512 512;" xml:space="preserve">
<style type="text/css">
	.st0{fill:#2F3A3E;}
	.st1{fill:url(#SVGID_1_);}
	.st2{opacity:0.3;enable-background:new    ;}
	.st3{opacity:0.1;fill:#FFFFFF;enable-background:new    ;}
	.st4{fill:#FFFFFF;stroke:#FFFFFF;stroke-width:2.9864;stroke-linejoin:round;}
	.st5{fill:#FFFFFF;}
</style>
<g>
	<g>
		<path class="st0" d="M84.1,10.5h343.7c40.7,0,73.7,33,73.7,73.7v343.7c0,40.7-33,73.7-73.7,73.7H84.1c-40.7,0-73.7-33-73.7-73.7
			V84.1C10.5,43.5,43.5,10.5,84.1,10.5z"/>
	</g>
	<g>
		<g transform="translate(-14.544 -2.4096)">
			
				<linearGradient id="SVGID_1_" gradientUnits="userSpaceOnUse" x1="223.6533" y1="170.5093" x2="339.9226" y2="286.7786" gradientTransform="matrix(1 0 0 -1 -14.544 514.2994)">
				<stop  offset="0" style="stop-color:#4C93CF"/>
				<stop  offset="1" style="stop-color:#3F6BB1"/>
			</linearGradient>
			<circle class="st1" cx="294.5" cy="258.4" r="178"/>
			<path class="st2" d="M472.3,253.5C470.5,350.4,391.4,428,294.5,428c-96.4-0.1-175.2-76.8-177.9-173.1c-0.1,1.2-0.1,2.3-0.2,3.5
				c0,98.3,79.7,178,178,178l0,0c98.3,0,178-79.7,178-178C472.5,256.8,472.4,255.1,472.3,253.5L472.3,253.5z"/>
			<path class="st3" d="M294.5,80.4c-98.3,0-178,79.7-178,178l0,0c0,1.6,0.1,3.3,0.2,4.9c1.9-96.9,80.9-174.5,177.9-174.5
				c96.4,0.1,175.2,76.8,177.9,173.1c0.1-1.2,0.1-2.3,0.2-3.5C472.5,160.1,392.8,80.4,294.5,80.4L294.5,80.4z"/>
		</g>
		<path class="st2" d="M99.6,134.7c-28.8,0-47.9,2.4-48,2.4c0,0-0.1,0-0.1,0c-1.9,0.2-1.6,3,0.2,2.9c0,0,104.8-5,188.8,28.8
			c3,12.8,10.9,32.5,15.6,42.9c-6.4,4.4-13.2,8.8-18.8,15.8c-5.9,7.4-10.4,17.6-11.5,33.2c-2.4,31.6,24.7,59.3,58.3,60.2
			c31.1,1.7,52.3,1.9,78,15.2c12,6.7,23.2,20.3,31.6,37.1c8.4,16.7,13.9,36.5,14.9,55.1c0.1,1.8,2.8,1.9,2.9,0c0-0.1,0-0.1,0-0.2
			c1.1-14.2-1-36.3-9.6-57.3c-7.2-17.6-19-34.3-37.1-44.8c26.1,7.1,41.1,20.4,49.7,32.5c9.9,13.9,11.3,26.3,11.3,26.2
			c0.2,1.7,2.8,1.7,2.9,0c0,0,1.3-15.2-9.2-31.9c-10.5-16.7-32.7-35-79-41.8c-11.7-1.7-26.5-3-41.5-3.1c0,0,0,0,0,0
			c-36.3,0.5-54.6-20.2-57.4-41.4c-1.4-10.6,1.1-21.4,7.2-29.7c6.2-8.3,16-14.3,29.5-15.3h0c22.2-1.8,49.2,10.2,75.9,22.6
			c0,3.1,0.2,6.2,2.5,9c1.5,1.9,4.2,3.2,7,4.5c2.8,1.3,5.6,2.5,6.7,3.1c2.6,1.5,11.1,7,16.2,13.5c0.6,0.8,1.9,0.7,2.5-0.2
			c0,0,0.8-0.9,1.8-1.8c1-0.8,2.3-1.8,3.5-2.7c2.5-1.8,4.9-3.3,4.9-3.3c1.2-0.8,0.6-2.7-0.8-2.7c0,0-0.4,0-1.5-0.2
			c-1.1-0.2-3-0.7-5.6-1.7c-2.4-0.9-5.2-2.8-7.4-4.6c-1.1-0.9-2-1.7-2.7-2.3c-0.1-0.1-0.1-0.1-0.2-0.2c0.7-0.6,0.8-1.6,0.7-2.3
			c-0.1-0.6-0.4-1.2-0.7-1.7c-0.6-1-1.4-1.9-2-2.5l0,0c0.1,0.1-0.2-0.2-0.4-0.6c-0.2-0.4-0.6-0.9-0.9-1.4c-0.7-1.1-1.6-2.6-2.5-4
			c-1.7-2.8-3.3-5.5-3.4-5.7c0,0-0.4-0.8-1.1-1.3c-0.1-0.1-0.2-0.1-0.4-0.2c-0.8-0.3-1.5-0.2-2.3-0.2c-0.8,0-1.8,0.1-2.6,0.3
			c-1.5,0.2-2.4,0.4-2.8,0.4c-1-0.5-8.7-4.8-11.6-13.5c-0.5-1.6-2.9-1.2-2.9,0.5c0,0.6-0.9,2.3-0.7,4.9c-3.4-2.1-6.4-5.4-9-12.1
			c-0.5-1.3-2.2-1.3-2.7,0c-1,2.5-1,4.6-0.8,6.2c-3.3-1.5-8.6-4.9-9.8-11.6c-0.2-1.4-2.2-1.7-2.8-0.3c-1,2.3-1,4.1-0.9,5.6
			c-6.1-2.6-22.8-8.7-47.9-8.8c-4.8-0.4-8.7-2.9-11.8-6.5c-3.2-3.6-5.5-8.5-7.2-13.5c-1.7-5-2.7-10.2-3.1-14.4
			c-0.5-4.3-0.3-7.8,0.1-8.8c0.2-0.7-0.1-1.4-0.7-1.7c0,0-30.6-16.1-90.4-23.2C137.9,135.5,117,134.7,99.6,134.7L99.6,134.7z
			 M169.4,166.6c-9.1,0.1-18.9,0.4-29.2,1.1c-54.9,3.9-110.1,23.1-110.1,23.1c-1.8,0.6-1,3.3,0.8,2.8c0,0,112.7-28.3,206.9-11.7
			c0.1,0,0.2,0,0.3,0h0c1,0,1.7-1,1.4-1.9l-2.5-7.9c-0.2-0.5-0.6-0.9-1.1-1C235.9,171.1,208.9,166.3,169.4,166.6
			C169.4,166.6,169.4,166.6,169.4,166.6L169.4,166.6z M236.4,183.5c-9.7,0-39.5,1.2-84.3,15.2c-56.2,17.6-88.2,42.6-88.2,42.6
			c-1.4,1.1,0,3.3,1.6,2.4c0,0,83.2-46.4,176.9-49c1,0,1.7-1,1.3-1.9l-2.7-8.1c-0.2-0.6-0.7-1-1.3-1
			C239.8,183.6,238.6,183.5,236.4,183.5L236.4,183.5z M297.6,183.4c-1.4,0-2,1.9-0.8,2.7h0c0.1,0.1,0.2,0.1,0.3,0.1
			c25.7,10.4,48,24.3,65.3,43.2c0,0,0,0,0,0l0,0c0.3,0.3,0.7,0.5,1.1,0.4l4.2-0.3c1.2-0.1,1.8-1.5,1-2.4c0,0-24.3-29.4-70.6-43.8
			c0,0,0,0,0,0c0,0,0,0-0.1,0c0,0,0,0,0,0C297.9,183.4,297.8,183.4,297.6,183.4L297.6,183.4z M370.8,245.3c0.8,0.2,2.4,3.3,3.9,5.5
			c0.1,0.2,0.3,0.4,0.4,0.5c0,0,0,0,0,0c0.2,0.2,0.3,0.5,0.5,0.7c0.1,0.5,0.2,0.8-0.9,0.5c-0.1-0.5-0.2-0.6-0.2-0.6
			s-2.6-1.6-3.4-2.7c-0.8-1.1-0.9-3.1-0.6-3.8C370.5,245.3,370.7,245.3,370.8,245.3L370.8,245.3z"/>
		<g transform="translate(2.0107)">
			<path class="st4" d="M97.6,130.3c-28.9,0-48,2.4-48,2.4s105.5-5.1,190.1,29.2c2.9,12.9,11.5,34.3,16.2,44.6
				c-13.3,9.2-28.4,17.9-30.7,48.6c-2.3,30.7,24.1,57.8,56.8,58.6c31.1,1.7,52.6,1.9,78.6,15.4c24.9,13.7,45.3,55.6,47.3,93.3
				c2.2-28-8.3-88.1-57.3-106.3c68.4,12,74.4,62.7,74.4,62.7c0,0,5.1-58.5-86.9-72c-11.7-1.7-26.4-3-41.3-3.1
				c-73.7,1-76.4-85-20.9-89.4c23-1.9,50.5,10.5,77.4,23c-0.1,3.3,0,6.3,2.2,9c2.2,2.7,10.6,5.7,13.3,7.3c2.7,1.5,11.3,7,16.6,13.9
				c1.1-2.1,10.7-8.4,10.7-8.4s-2.3,0-7.6-1.9c-5.3-2-11.7-8-11.8-8.4c-0.1-0.3-0.2-0.9,1-1.1c0.9-0.8-1.2-3.4-2.1-4.3
				c-0.9-0.9-7.3-11.7-7.4-12c-0.1-0.2-0.2-0.5-0.6-0.8c-1.4-0.4-7.5,0.6-7.5,0.6s-9.4-4.6-12.7-14.6c0,1.7-1.6,3.7,0,7.7
				c-4.9-2.1-9.1-5.6-12.5-14.4c-2,5,0,8.2,0,8.2s-11.6-3.2-13.4-13.9c-2,4.8,0,7.7,0,7.7s-18.9-9.8-50.2-10
				c-21-1.9-25.4-38.8-23.4-45.1c0,0-30.3-16-89.9-23C135.8,131.1,114.9,130.3,97.6,130.3L97.6,130.3z M167.4,162.2
				c-9.1,0.1-18.8,0.4-29.1,1.1c-54.6,3.9-109.8,23-109.8,23s112.8-28.4,207.5-11.7h0l-2.5-7.9C233.6,166.6,206.8,161.9,167.4,162.2
				L167.4,162.2z M234.4,179.1c-9.6,0-39.2,1.2-83.8,15.1c-56,17.5-87.7,42.3-87.7,42.3s83.4-46.6,177.6-49.2l-2.7-8.1
				C237.7,179.2,236.6,179.1,234.4,179.1L234.4,179.1z M295.6,178.9c25.8,10.5,48.3,24.4,65.8,43.6l0,0l4.2-0.3
				C365.6,222.3,341.6,193.1,295.6,178.9L295.6,178.9z M366.9,235l5.1,3.8c0.6-1.1,3.2,5.9,4.8,7.9c0.1,0.4-2.6,3.5-3.5,3.4
				c-0.1-0.4-4.3-1.6-4.3-1.6s-4.8-2.9-5.4-3.8C362.9,243.7,366.5,235.6,366.9,235L366.9,235z"/>
			<path class="st5" d="M97.6,130.3c-28.9,0-48,2.4-48,2.4s105.5-5.1,190.1,29.2c2.9,12.9,11.5,34.3,16.2,44.6
				c-13.3,9.2-28.4,17.9-30.7,48.6c-2.3,30.7,24.1,57.8,56.8,58.6c31.1,1.7,52.6,1.9,78.6,15.4c24.9,13.7,45.3,55.6,47.3,93.3
				c2.2-28-8.3-88.1-57.3-106.3c68.4,12,74.4,62.7,74.4,62.7c0,0,5.1-58.5-86.9-72c-11.7-1.7-26.4-3-41.3-3.1
				c-73.7,1-76.4-85-20.9-89.4c23-1.9,50.5,10.5,77.4,23c-0.1,3.3,0,6.3,2.2,9c2.2,2.7,10.6,5.7,13.3,7.3c2.7,1.5,11.3,7,16.6,13.9
				c1.1-2.1,10.7-8.4,10.7-8.4s-2.3,0-7.6-1.9c-5.3-2-11.7-8-11.8-8.4c-0.1-0.3-0.2-0.9,1-1.1c0.9-0.8-1.2-3.4-2.1-4.3
				c-0.9-0.9-7.3-11.7-7.4-12c-0.1-0.2-0.2-0.5-0.6-0.8c-1.4-0.4-7.5,0.6-7.5,0.6s-9.4-4.6-12.7-14.6c0,1.7-1.6,3.7,0,7.7
				c-4.9-2.1-9.1-5.6-12.5-14.4c-2,5,0,8.2,0,8.2s-11.6-3.2-13.4-13.9c-2,4.8,0,7.7,0,7.7s-18.9-9.8-50.2-10
				c-21-1.9-25.4-38.8-23.4-45.1c0,0-30.3-16-89.9-23C135.8,131.1,114.9,130.3,97.6,130.3L97.6,130.3z M167.4,162.2
				c-9.1,0.1-18.8,0.4-29.1,1.1c-54.6,3.9-109.8,23-109.8,23s112.8-28.4,207.5-11.7h0l-2.5-7.9C233.6,166.6,206.8,162.2,167.4,162.2
				L167.4,162.2z M234.4,179.1c-9.6,0-39.2,1.2-83.8,15.1c-56,17.5-87.7,42.3-87.7,42.3s83.4-46.6,177.6-49.2l-2.7-8.1
				C237.7,179.2,236.6,179.1,234.4,179.1L234.4,179.1z M295.6,178.9c25.8,10.5,48.3,24.4,65.8,43.6l0,0l4.2-0.3
				C365.6,222.3,341.6,193.1,295.6,178.9L295.6,178.9z M368.8,239.4c0.8,0.2,2.4,3.3,3.9,5.5c0.1,0.2,0.3,0.4,0.4,0.5c0,0,0,0,0,0
				c0.2,0.2,0.3,0.5,0.5,0.7c0.1,0.5,0.2,0.8-0.9,0.5c-0.1-0.5-0.2-0.6-0.2-0.6s-2.6-1.6-3.4-2.7c-0.8-1.1-0.9-3.1-0.6-3.8
				C368.5,239.5,368.6,239.4,368.8,239.4L368.8,239.4z"/>
		</g>
	</g>
</g>
</svg>
