<?xml version="1.0" encoding="utf-8"?>
<!-- Generator: Adobe Illustrator 28.0.0, SVG Export Plug-In . SVG Version: 6.00 Build 0)  -->
<svg version="1.1" id="Camada_1" xmlns="http://www.w3.org/2000/svg" xmlns:xlink="http://www.w3.org/1999/xlink" x="0px" y="0px"
	 viewBox="0 0 512 512" style="enable-background:new 0 0 512 512;" xml:space="preserve">
<style type="text/css">
	.st0{fill:#2F3A3E;}
	.st1{fill:#333333;}
	.st2{fill:#EEEDED;}
	.st3{fill:#FDCA26;stroke:#333333;stroke-width:2;stroke-miterlimit:8;}
</style>
<g>
	<path class="st0" d="M83.8,10h344.4C469,10,502,43,502,83.8v344.4c0,40.7-33,73.8-73.8,73.8H83.8C43,502,10,469,10,428.2V83.8
		C10,43,43,10,83.8,10z"/>
	<g transform="matrix(2 0 0 2 256 256)">
		<path class="st1" d="M-30.7-24.1c-2.9,6.7-23.1,27.9-21.1,49c7.7,88.4,34.6,28.8,74.9,50.9c0,0,72.1-40.4,14.4-105.7
			C21.2-52.9,35.6-71.1,25-86.5s-28.8-16.3-42.3-1.9S-11.5-52.9-30.7-24.1"/>
		<path class="st2" d="M40.4,20.2c0,0,8.6-17.3-7.7-29.8c15.4,16.3,5.8,30.7,5.8,30.7h-2.9c-1-33.6-9.6-15.4-22.1-74.9
			C27.9-70.1,0-84.5,0-57.6h-8.6c1-23-19.2-11.5-7.7,4.8c-1,35.5-22.1,49.9-22.1,74.9c-6.7-17.3,5.8-30.7,5.8-30.7
			s-17.3,14.4-6.7,35.5S-9.6,43.3-23,52.9c21.1,14.4,53.8,4.8,52.8-25.9c1-7.7,21.1-4.8,23-2.9S50,20.2,40.4,20.2 M-13.4-54.8
			c-6.7-1.9-4.8-10.6-1.9-10.6S-7.6-58.6-13.4-54.8 M4.8-53.8c-4.8-6.7-1-13.5,3.8-12.5S13.5-53.8,4.8-53.8"/>
		<g>
			<path class="st3" d="M-39.3,29.7l20.2,28.8c10.6,6.7,4.8,33.6-24,20.2c-16.3-4.8-29.8-3.8-31.7-12.5c-1.9-8.6,3.8-9.6,2.9-13.5
				c-3.8-21.1,13.5-10.6,18.3-21.1S-49,16.3-39.3,29.7 M68.3,43.2c-3.8-5.8,0-16.3-13.5-15.4c-5.8,11.5-22.1,23.1-23.1,0
				c-9.6,0-2.9,23.1-6.7,33.6c-8.6,25.9,16.3,27.9,26.9,15.4l25-17.3C78.8,56.6,81.7,53.8,68.3,43.2 M-20.1-45.2
				C-23-51-9.6-58.6-4.8-58.6s11.5,3.8,18.3,5.8s3.8,8.6,1.9,9.6c-1.9,1-12.5,9.6-20.2,9.6S-14.4-41.3-20.1-45.2"/>
			<path class="st3" d="M-20.1-46.2c7.7,5.8,16.3,10.6,33.6-2.9"/>
		</g>
		<path class="st1" d="M-9.6-51.9c-1.9,0,1-1.9,1.9-1 M-0.9-51.9c1-1-1-1.9-2.9-1"/>
	</g>
</g>
</svg>
