<?xml version="1.0" encoding="utf-8"?>
<!-- Generator: Adobe Illustrator 28.0.0, SVG Export Plug-In . SVG Version: 6.00 Build 0)  -->
<svg version="1.1" id="Camada_1" xmlns="http://www.w3.org/2000/svg" xmlns:xlink="http://www.w3.org/1999/xlink" x="0px" y="0px"
	 viewBox="0 0 256 256" style="enable-background:new 0 0 256 256;" xml:space="preserve">
<style type="text/css">
	.st0{fill:#2F3A3E;}
	.st1{fill:#9078B4;}
	.st2{fill:#2C2560;}
	.st3{fill:#382780;}
	.st4{fill:#FFFFFF;}
</style>
<g>
	<g>
		<path class="st0" d="M44.7,9h166.6C231,9,247,25,247,44.7v166.6c0,19.7-16,35.7-35.7,35.7H44.7C25,247,9,231,9,211.3V44.7
			C9,25,25,9,44.7,9z"/>
	</g>
	<g>
		<path class="st1" d="M215.9,87.3c0-3.3-0.7-6.3-2.2-8.8c-1.4-2.5-3.5-4.6-6.4-6.2c-23.4-13.5-46.9-27-70.3-40.5
			c-6.3-3.6-12.4-3.5-18.7,0.2c-9.3,5.5-56,32.2-69.9,40.3c-5.7,3.3-8.5,8.4-8.5,15c0,27.2,0,54.3,0,81.5c0,3.3,0.7,6.1,2.1,8.6
			c1.4,2.6,3.6,4.7,6.5,6.4c13.9,8.1,60.6,34.8,69.9,40.3c6.3,3.7,12.4,3.8,18.7,0.2c23.4-13.5,46.9-27,70.3-40.5
			c2.9-1.7,5-3.8,6.5-6.4c1.4-2.5,2.1-5.4,2.1-8.6C216,168.7,216,114.4,215.9,87.3"/>
		<path class="st2" d="M128.3,127.7l-86.2,49.6c1.4,2.6,3.6,4.7,6.5,6.4c13.9,8.1,60.6,34.8,69.9,40.3c6.3,3.7,12.4,3.8,18.7,0.2
			c23.4-13.5,46.9-27,70.3-40.5c2.9-1.7,5-3.8,6.5-6.4L128.3,127.7"/>
		<path class="st3" d="M215.9,87.3c0-3.3-0.7-6.3-2.2-8.8l-85.5,49.2l85.6,49.6c1.4-2.5,2.1-5.4,2.1-8.6
			C216,168.7,216,114.4,215.9,87.3"/>
		<path class="st4" d="M179,109.5v8.9h8.9v-8.9h4.8v8.9h8.9v4.8h-8.9v8.9h8.9v4.8h-8.9v8.9H188v-8.9H179v8.9h-4.8v-8.9h-8.9v-4.8
			h8.9v-8.9h-8.9v-4.8h8.9v-8.9H179z M188,123.3H179v8.9h8.9V123.3z"/>
		<path class="st4" d="M63.2,128.2c0.1-35.9,29.6-65.3,65.5-65.2c24,0.1,45,13.2,56.2,32.6l-0.1-0.2l-28.4,16.4
			c-5.6-9.5-15.9-15.9-27.6-16l-0.4,0c-17.9,0-32.5,14.5-32.5,32.5c0,5.9,1.6,11.4,4.3,16.1c5.6,9.8,16.1,16.4,28.2,16.4
			c12.2,0,22.7-6.7,28.3-16.6l-0.1,0.2l28.4,16.4c-11.2,19.3-31.9,32.4-55.8,32.6l-0.7,0c-24.2,0-45.3-13.2-56.6-32.8
			C66.3,151.1,63.2,140,63.2,128.2z"/>
	</g>
</g>
</svg>
