<?xml version="1.0" encoding="utf-8"?>
<!-- Generator: Adobe Illustrator 28.0.0, SVG Export Plug-In . SVG Version: 6.00 Build 0)  -->
<svg version="1.1" id="Camada_1" xmlns="http://www.w3.org/2000/svg" xmlns:xlink="http://www.w3.org/1999/xlink" x="0px" y="0px"
	 viewBox="0 0 512 512" style="enable-background:new 0 0 512 512;" xml:space="preserve">
<style type="text/css">
	.st0{fill:#2F3A3E;}
	.st1{fill:#2D5BA6;}
	.st2{opacity:0.3;enable-background:new    ;}
	.st3{fill:#FFFFFF;}
	.st4{opacity:0.2;fill:#FFFFFF;enable-background:new    ;}
	.st5{opacity:0.2;enable-background:new    ;}
</style>
<g>
	<g>
		<path class="st0" d="M81,6h350c41.4,0,75,33.6,75,75v350c0,41.4-33.6,75-75,75H81c-41.4,0-75-33.6-75-75V81C6,39.6,39.6,6,81,6z"
			/>
	</g>
	<g transform="matrix(1.0444 0 0 1.0444 -3.204 -171.71)">
		<path class="st1" d="M103.2,237.2v214.7c0,30.7,30.3,73.1,61.3,93.9l84.4,56.8l83.6-56.8c30.9-21,61.3-63.2,61.3-93.9V237.2
			C297.9,208.8,200.9,210.8,103.2,237.2L103.2,237.2z"/>
		<path class="st2" d="M125.4,270.1v180.8c0,25.8,35.5,62.9,51.7,79.1V346.8l47.6,43v76.5h46v-76.5l47.6-43V530
			c16.2-16.2,51.7-53.3,51.7-79.1V270.1h-48.6L248,340l-73.5-70L125.4,270.1z"/>
		<path class="st3" d="M125.4,261v180.8c0,25.8,35.5,62.9,51.7,79.1V338.6l47.6,43v76.5h46v-76.5l47.6-43v182.3
			c16.2-16.2,51.7-53.3,51.7-79.1V261h-48.6L248,331l-73.5-70H125.4z"/>
		<path class="st4" d="M248.4,216.4c-48.5,0.2-97.1,7.4-146,20.6v8.6c97.7-26.4,194.6-28.4,290.7,0V237
			C345.1,222.8,296.8,216.2,248.4,216.4L248.4,216.4z"/>
		<path class="st2" d="M102.4,443.2v8.6c0,30.6,30.3,73,61.3,93.8l84.4,56.7l83.6-56.7c30.9-21,61.3-63.2,61.3-93.8v-8.6
			c0,30.6-30.4,72.8-61.3,93.8l-83.6,56.7L163.8,537C132.7,516.1,102.4,473.8,102.4,443.2L102.4,443.2z"/>
		<path class="st5" d="M248,216.7c-0.1,0-0.1,0-0.2,0v385.9l83.8-56.8c31-21,61.5-63.2,61.5-93.9V237.3
			C345,223.1,296.6,216.5,248,216.7L248,216.7z"/>
	</g>
</g>
</svg>
