<?xml version="1.0" encoding="utf-8"?>
<!-- Generator: Adobe Illustrator 28.0.0, SVG Export Plug-In . SVG Version: 6.00 Build 0)  -->
<svg version="1.1" id="Camada_1" xmlns="http://www.w3.org/2000/svg" xmlns:xlink="http://www.w3.org/1999/xlink" x="0px" y="0px"
	 viewBox="0 0 150 150" style="enable-background:new 0 0 150 150;" xml:space="preserve">
<style type="text/css">
	.st0{fill:#2F3A3E;}
	.st1{fill:url(#SVGID_1_);}
	.st2{fill:#2773B9;}
	.st3{fill:url(#SVGID_00000034798901870911774430000015414031635022938545_);}
	.st4{fill:url(#SVGID_00000039121618347566817150000011016672637792448390_);}
</style>
<g>
	<g>
		<path class="st0" d="M24.8,3.3h100.3c11.9,0,21.5,9.6,21.5,21.5v100.3c0,11.9-9.6,21.5-21.5,21.5H24.8c-11.9,0-21.5-9.6-21.5-21.5
			V24.8C3.3,13,13,3.3,24.8,3.3z"/>
	</g>
	<g>
		
			<linearGradient id="SVGID_1_" gradientUnits="userSpaceOnUse" x1="-1110.9824" y1="579.5955" x2="-1132.2209" y2="642.3393" gradientTransform="matrix(1.5625 0 0 1.5625 1804.5625 -873.9529)">
			<stop  offset="0" style="stop-color:#0F4A8A"/>
			<stop  offset="1" style="stop-color:#1B69B1"/>
		</linearGradient>
		<path class="st1" d="M57,24.1h32l-33.2,98.3c-0.7,2.1-2.6,3.5-4.8,3.5H26.1c-2.8,0-5.1-2.3-5.1-5.1c0-0.6,0.1-1.1,0.3-1.6
			l30.9-91.6C52.9,25.5,54.8,24.1,57,24.1L57,24.1z"/>
		<path class="st2" d="M103.4,90H52.8c-1.3,0-2.3,1-2.3,2.3c0,0.7,0.3,1.3,0.7,1.7l32.6,30.4c0.9,0.9,2.2,1.4,3.5,1.4h28.7L103.4,90
			z"/>
		
			<linearGradient id="SVGID_00000044885808288927175880000002218650520147844004_" gradientUnits="userSpaceOnUse" x1="-1104.3481" y1="608.8349" x2="-1109.261" y2="610.4961" gradientTransform="matrix(1.5625 0 0 1.5625 1804.5625 -873.9529)">
			<stop  offset="0" style="stop-color:#000000;stop-opacity:0.3"/>
			<stop  offset="7.100000e-02" style="stop-color:#000000;stop-opacity:0.2"/>
			<stop  offset="0.321" style="stop-color:#000000;stop-opacity:0.1"/>
			<stop  offset="0.623" style="stop-color:#000000;stop-opacity:5.000000e-02"/>
			<stop  offset="1" style="stop-color:#000000;stop-opacity:0"/>
		</linearGradient>
		<path style="fill:url(#SVGID_00000044885808288927175880000002218650520147844004_);" d="M57,24.1c-2.2,0-4.2,1.4-4.8,3.5
			l-30.9,91.4c-0.9,2.6,0.4,5.6,3.1,6.5c0.6,0.2,1.1,0.3,1.7,0.3h25.5c1.9-0.3,3.5-1.7,4.2-3.6l6.2-18.1l22,20.5
			c0.9,0.8,2.1,1.2,3.3,1.2h28.6L103.3,90l-36.5,0l22.4-65.9H57z"/>
		
			<linearGradient id="SVGID_00000047768587316605954090000003952258603807138726_" gradientUnits="userSpaceOnUse" x1="-1106.8971" y1="577.7083" x2="-1083.5836" y2="639.8198" gradientTransform="matrix(1.5625 0 0 1.5625 1804.5625 -873.9529)">
			<stop  offset="0" style="stop-color:#4DC1EA"/>
			<stop  offset="1" style="stop-color:#348DCC"/>
		</linearGradient>
		<path style="fill:url(#SVGID_00000047768587316605954090000003952258603807138726_);" d="M97.8,27.6c-0.7-2.1-2.6-3.5-4.8-3.5
			H57.4c2.2,0,4.1,1.4,4.8,3.5l30.9,91.6c0.9,2.7-0.5,5.5-3.2,6.4c-0.5,0.2-1.1,0.3-1.6,0.3h35.6c2.8,0,5.1-2.3,5.1-5.1
			c0-0.6-0.1-1.1-0.3-1.6L97.8,27.6z"/>
	</g>
</g>
</svg>
