<?xml version="1.0" encoding="utf-8"?>
<!-- Generator: Adobe Illustrator 28.0.0, SVG Export Plug-In . SVG Version: 6.00 Build 0)  -->
<svg version="1.1" id="Camada_1" xmlns="http://www.w3.org/2000/svg" xmlns:xlink="http://www.w3.org/1999/xlink" x="0px" y="0px"
	 viewBox="0 0 767.9 768" style="enable-background:new 0 0 767.9 768;" xml:space="preserve">
<style type="text/css">
	.st0{fill:#2F3A3E;}
	.st1{fill:#EF8118;}
	.st2{fill:#53575A;}
	.st3{fill:#00A7CE;}
</style>
<g>
	<g>
		<path class="st0" d="M121.5,9h525C708.6,9,759,59.4,759,121.5v525c0,62.1-50.4,112.5-112.5,112.5h-525C59.3,759,9,708.6,9,646.5
			v-525C9,59.4,59.3,9,121.5,9z"/>
	</g>
	<g>
		<path class="st1" d="M213.3,335.8c-3.8,8.7-9.4,17.5-17.5,24.9c-17.1,16.6-38.5,23.3-60.8,24.1l83.4,81c1.3-21.6,7.7-42.4,24.8-59
			c7.7-7.5,16.7-12.9,25.7-17C243.2,380.7,222.7,360.7,213.3,335.8L213.3,335.8z"/>
		<path class="st1" d="M194.9,519.1c31.7-30.8,31.7-80.6,0-111.4s-83-30.8-114.7,0c-31.7,30.8-31.7,80.6,0,111.4
			C111.9,549.8,163.2,549.8,194.9,519.1z"/>
		<path class="st2" d="M359.1,248.5c31.7,30.8,31.7,80.6,0,111.4c-31.7,30.8-83,30.8-114.7,0c-31.7-30.8-31.7-80.6,0-111.4
			S327.5,217.8,359.1,248.5z"/>
		<path class="st3" d="M687.7,248.5c-31.7-30.8-83-30.8-114.7,0c-15.4,15-23.1,34.1-23.5,53.2c-1.3,21.6-7.7,42.4-24.8,59
			c-7.7,7.5-16.7,13.3-25.7,17c26.1,9.1,46.6,29.1,56,54.4c3.8-9.1,9.4-17.5,17.5-24.9c17.1-16.6,38.5-23.3,60.8-24.1
			c20.1-0.4,39.8-8.3,54.8-22.9C719.3,329.1,719.3,279.3,687.7,248.5L687.7,248.5z M659.4,332.5c-7.7,7.5-18.4,11.6-29.1,11.6
			c-11.1,0-21.4-4.2-29.1-11.6c-16.3-15.8-16.3-41.1,0-56.9c7.7-7.5,18.4-11.6,29.1-11.6c11.1,0,21.4,4.2,29.1,11.6
			c7.7,7.5,12,17.9,12,28.3C671.8,315,667.5,325,659.4,332.5L659.4,332.5z"/>
		<path class="st2" d="M523.4,408.1c31.7,30.8,31.7,80.6,0,111.4c-31.7,30.8-83,30.8-114.7,0c-31.7-30.8-31.7-80.6,0-111.4
			S491.8,377.4,523.4,408.1z"/>
		<path class="st2" d="M407.9,360.7c-17.1-16.6-24-37.4-24.8-59l-83.9,81c22.2,1.2,43.6,7.5,60.7,24.1c17.1,16.6,24,37.4,24.8,59
			l83.4-81C446.4,384,425,377.3,407.9,360.7L407.9,360.7z"/>
	</g>
</g>
</svg>
