<?xml version="1.0" encoding="utf-8"?>
<!-- Generator: Adobe Illustrator 28.0.0, SVG Export Plug-In . SVG Version: 6.00 Build 0)  -->
<svg version="1.1" id="Camada_1" xmlns="http://www.w3.org/2000/svg" xmlns:xlink="http://www.w3.org/1999/xlink" x="0px" y="0px"
	 viewBox="0 0 800 800" style="enable-background:new 0 0 800 800;" xml:space="preserve">
<style type="text/css">
	.st0{fill:#EC6B3E;}
	.st1{fill:#FFFFFF;}
</style>
<g>
	<g>
		<path class="st0" d="M137.5,25h525C724.6,25,775,75.4,775,137.5v525c0,62.1-50.4,112.5-112.5,112.5h-525
			C75.4,775,25,724.6,25,662.5v-525C25,75.4,75.4,25,137.5,25z"/>
	</g>
	<g>
		<path class="st0" d="M724.8,441.6C747.7,262.1,621,98.1,441.9,75.2S98.1,179,75.2,358.1S179,701.6,358.1,724.8
			C537.5,747.7,701.6,621,724.8,441.6z"/>
		<g transform="translate(50.181225, 45.198924)">
			<path class="st1" d="M468,237.6L329.8,375.8l-39-39C426.8,200.9,440.2,212.7,468,237.6L468,237.6z"/>
			<path class="st0" d="M329.8,379c-1,0-1.6-0.3-2.3-1l-39.3-39c-1.3-1.3-1.3-3.3,0-4.6C426.4,196.3,440.8,209.4,470,235.6
				c0.7,0.7,1,1.3,1,2.3c0,1-0.3,1.6-1,2.3L331.8,378C331.5,378.7,330.5,379,329.8,379z M295.5,336.8l34.4,34.4l133.3-133.3
				C438.9,216.3,422.5,209.7,295.5,336.8L295.5,336.8z"/>
			<path class="st1" d="M369.5,415.4l-37.7-37.7L470,239.5C507,276.9,451.7,337.4,369.5,415.4z"/>
			<path class="st0" d="M369.5,418.7c-1,0-1.6-0.3-2.3-1L329.5,380c-0.7-0.7-0.7-1.3-0.7-2.3c0-1,0.3-1.6,1-2.3L468,237.2
				c1.3-1.3,3.3-1.3,4.6,0c8.5,7.9,13.1,19,12.8,30.5c-0.7,36.3-41.9,82.5-113.3,150C371.1,418.3,370.1,418.7,369.5,418.7
				L369.5,418.7z M336.4,377.7c21,21.3,29.8,29.8,33.1,33.1c55-52.4,108.4-106.1,108.7-143.1c0.3-8.5-2.9-17-8.5-23.6L336.4,377.7z"
				/>
			<path class="st1" d="M291.5,337.8l27.8,27.8c0.7,0.7,0.7,1.3,0,2c-0.3,0.3-0.3,0.3-0.7,0.3l-57.6,12.4c-2.9,0.3-5.6-1.6-6.2-4.6
				c-0.3-1.6,0.3-3.3,1.3-4.3l33.4-33.4C290.2,337.4,291.2,337.1,291.5,337.8z"/>
			<path class="st0" d="M260.1,383.6c-4.9,0-8.5-3.9-8.5-8.8c0-2.3,1-4.6,2.6-6.2l33.4-33.4c2-1.6,4.6-1.6,6.5,0L322,363
				c2,1.6,2,4.6,0,6.5c-0.7,0.7-1.3,1-2.3,1.3l-57.6,12.4C261.4,383.3,260.8,383.6,260.1,383.6L260.1,383.6z M290.6,341.4
				l-32.1,32.1c-0.7,0.7-1,1.6-0.3,2.6c0.3,1,1.3,1.3,2.3,1l54-11.8L290.6,341.4z"/>
			<path class="st1" d="M541,161c-21-20.3-54.7-19.6-75,1.6c-20.3,21.3-19.6,54.7,1.6,75c17.4,16.7,43.5,19.6,64.2,7.2l-37.3-37.3
				L541,161z"/>
			<path class="st0" d="M504.4,255.6c-31.1,0-56.3-25.2-56.3-56.3s25.2-56.3,56.3-56.3c14.4,0,28.5,5.6,39,15.7c0.7,0.7,1,1.3,1,2.3
				c0,1-0.3,1.6-1,2.3l-44.2,44.2l34.7,34.7c1.3,1.3,1.3,3.3,0,4.6c-0.3,0.3-0.3,0.3-0.7,0.7C524.7,252.6,514.5,255.6,504.4,255.6z
				 M504.4,149.8c-27.5,0-49.8,22.3-49.4,49.8c0,27.5,22.3,49.8,49.8,49.4c7.5,0,15.1-1.6,21.9-5.2l-34.4-34.1c-0.7-0.7-1-1.3-1-2.3
				s0.3-1.6,1-2.3l43.9-43.9C527.3,153.8,516.2,149.8,504.4,149.8L504.4,149.8z"/>
			<path class="st1" d="M542,161.9l-0.7-0.7l-46.8,46.2l37,37c3.6-2.3,7.2-4.9,10.2-7.9C562.7,216,562.7,182.6,542,161.9L542,161.9z
				"/>
			<path class="st0" d="M531.9,248.1c-1,0-1.6-0.3-2.3-1l-37.3-37.3c-0.7-0.7-1-1.3-1-2.3s0.3-1.6,1-2.3l46.5-46.5
				c1.3-1.3,3.3-1.3,4.6,0l1,0.7c21.9,21.9,21.9,57.3,0.3,79.6c-3.3,3.3-6.9,6.2-10.8,8.5C532.9,247.7,532.2,248.1,531.9,248.1
				L531.9,248.1z M499.1,207.5l33.1,33.1c2.6-1.6,5.2-3.9,7.2-5.9c18.7-18.7,19.6-49.1,1.6-68.8L499.1,207.5z"/>
			<path class="st1" d="M473.6,243.5c-7.9-7.9-20.6-7.9-28.5,0L321.7,366.9l20.6,20.6l130.6-114.6c8.5-7.2,9.2-20,2-28.5
				C474.2,244.1,473.9,243.8,473.6,243.5L473.6,243.5z"/>
			<path class="st0" d="M342,390.8c-1,0-1.6-0.3-2.3-1L319,369.2c-1.3-1.3-1.3-3.3,0-4.6l123.4-123.4c9.2-9.2,23.9-9.2,33.1,0
				c9.2,9.2,9.2,23.9,0,33.1c-0.3,0.3-0.7,0.7-1,1L343.9,389.8C343.6,390.5,342.9,390.8,342,390.8L342,390.8z M326.2,366.9l16,16
				l128.4-112.6c7.2-5.9,7.9-16.7,2-23.9c-5.9-7.2-16.7-7.9-23.9-2c-0.3,0.3-0.7,0.7-1.3,1L326.2,366.9z"/>
			<path class="st1" d="M227,507.4c-1.3,0.7-2,2-1.6,3.3l5.6,23.6c1.3,3.3-0.7,7.2-4.3,8.2c-2.6,1-5.6,0-7.2-2l-36-35.7L301,387.2
				l40.6,0.7l27.5,27.5C362.6,420.9,323,459.3,227,507.4L227,507.4z"/>
			<path class="st0" d="M224.4,545.7c-2.6,0-5.2-1-6.9-2.9l-35.7-35.7c-0.7-0.7-1-1.3-1-2.3c0-1,0.3-1.6,1-2.3l117.6-117.6
				c0.7-0.7,1.6-1,2.3-1l40.6,0.7c1,0,1.6,0.3,2.3,1l27.5,27.5c0.7,0.7,1,1.6,1,2.6s-0.3,1.6-1.3,2.3l-2.3,2
				c-34.7,30.5-81.9,60.9-140.5,90l5.6,23.2c1,4.3-1,8.8-4.9,11.1C227.7,545.4,226,545.7,224.4,545.7z M188.4,504.8l33.7,33.4
				c1,1.6,2.9,2.3,4.6,1.3c1.6-1,2.3-2.9,1.3-4.6l-5.6-23.6c-0.7-2.9,0.7-5.6,3.3-6.9c58-29.1,104.8-59.3,139.2-89.1l-24.2-24.2
				l-37.7-0.7L188.4,504.8z"/>
			<path class="st1" d="M155.6,532.9l28.2-28.2l41.9,41.9l-66.8-4.6c-2.9-0.3-4.9-2.9-4.6-5.9C154.3,534.9,154.7,533.6,155.6,532.9
				L155.6,532.9z"/>
			<path class="st0" d="M225.7,549.6l-67.1-4.6c-4.9-0.3-8.2-4.6-7.9-9.5c0.3-2,1-3.9,2.6-5.2l28.2-28.2c1.3-1.3,3.3-1.3,4.6,0
				l41.9,41.9c1,1,1.3,2.3,0.7,3.6C228,549,227,549.6,225.7,549.6L225.7,549.6z M183.8,509.4l-25.9,25.9c-1,0.7-1,2.3,0,2.9
				c0.3,0.3,0.7,0.7,1.3,0.7l58,3.9L183.8,509.4z"/>
			<path class="st0" d="M289.6,402.3c-2,0-3.3-1.6-3.3-3.3c0-1,0.3-1.6,1-2.3L319,365c1.3-1.3,3.3-1.3,4.6,0l20.6,20.6
				c1,1,1.3,2,1,3.3c-0.3,1-1.3,2-2.6,2.3l-52.4,11.1C289.9,402.3,289.6,402.3,289.6,402.3L289.6,402.3z M321.3,371.8l-21.6,21.6
				l35.4-7.5L321.3,371.8z"/>
			<path class="st1" d="M341.6,387.9l-36,7.9c-2.6,0.7-5.2-1-5.9-3.6c-0.3-1.6,0-3.3,1.3-4.6l20-20L341.6,387.9z"/>
			<path class="st0" d="M305,399c-4.6,0-8.2-3.6-8.2-8.2c0-2.3,1-4.3,2.3-5.9l20-20c1.3-1.3,3.3-1.3,4.6,0l20.6,20.6
				c1,1,1.3,2,1,3.3c-0.3,1-1.3,2-2.6,2.3l-36,7.9C305.9,399,305.3,399,305,399L305,399z M321.3,371.8l-17.7,17.7
				c-0.7,0.7-0.7,1.3-0.3,2c0.3,0.7,1,1,2,1l30.1-6.5L321.3,371.8z"/>
			<path class="st0" d="M542.4,193.4c-0.7-2-2.9-2.9-4.9-2.3c-2,0.7-2.9,2.9-2.3,4.9c0,0.3,0.3,0.7,0.3,1c2,3.9,1.3,8.8-1.3,12.4
				c-1.3,1.6-1,3.9,0.3,5.2c1.6,1.3,3.9,1,5.2-0.7C544.6,207.8,545.6,199.9,542.4,193.4L542.4,193.4z"/>
		</g>
	</g>
</g>
</svg>
