<?xml version="1.0" encoding="utf-8"?>
<!-- Generator: Adobe Illustrator 28.0.0, SVG Export Plug-In . SVG Version: 6.00 Build 0)  -->
<svg version="1.1" id="Camada_1" xmlns="http://www.w3.org/2000/svg" xmlns:xlink="http://www.w3.org/1999/xlink" x="0px" y="0px"
	 viewBox="0 0 800 800" style="enable-background:new 0 0 800 800;" xml:space="preserve">
<style type="text/css">
	.st0{fill:#2F3A3E;}
	.st1{fill:#0466A9;}
	.st2{fill:#1F78BC;}
	.st3{fill:#3F95D1;}
</style>
<g>
	<g>
		<path class="st0" d="M127.5,10.7h545c64.5,0,116.8,52.3,116.8,116.8v545c0,64.5-52.3,116.8-116.8,116.8h-545
			C63,789.3,10.7,737,10.7,672.5v-545C10.7,63,63,10.7,127.5,10.7z"/>
	</g>
	<g>
		<path class="st1" d="M688,157.2L560.4,95.8c-14.8-7.1-32.4-4.1-44,7.5L98.6,484.1c-10.6,9.6-11.3,25.9-1.8,36.5
			c0.6,0.6,1.1,1.2,1.7,1.7l34.1,31c9.2,8.4,23.1,9,33,1.5l503.2-381.6c11.3-8.6,27.4-6.4,35.9,4.9c3.4,4.5,5.2,9.9,5.2,15.5v-1.5
			C709.9,177.2,701.4,163.6,688,157.2z"/>
		<path class="st2" d="M688,642.8l-127.6,61.5c-14.8,7.1-32.4,4.1-44-7.5L98.6,315.9c-10.6-9.6-11.3-25.9-1.8-36.5
			c0.6-0.6,1.1-1.2,1.7-1.7l34.1-31c9.2-8.4,23.1-9,33-1.5l503.1,381.6c11.3,8.6,27.4,6.4,35.9-4.9c3.4-4.5,5.2-9.9,5.2-15.5v1.6
			C709.8,622.9,701.3,636.4,688,642.8z"/>
		<path class="st3" d="M560.4,704.3c-14.8,7.1-32.4,4.1-44-7.5c8.9,8.8,23.3,8.7,32.1-0.2c4.2-4.2,6.5-9.9,6.5-15.8V119.3
			c0-12.5-10.1-22.7-22.6-22.7c-6,0-11.8,2.4-16.1,6.7c11.6-11.6,29.2-14.6,44-7.5l127.6,61.4c13.4,6.4,22,20,22,34.9V608
			c0,14.9-8.5,28.4-21.9,34.9L560.4,704.3z"/>
	</g>
</g>
</svg>
