<?xml version="1.0" encoding="utf-8"?>
<!-- Generator: Adobe Illustrator 28.0.0, SVG Export Plug-In . SVG Version: 6.00 Build 0)  -->
<svg version="1.1" id="Camada_1" xmlns:v="https://vecta.io/nano"
	 xmlns="http://www.w3.org/2000/svg" xmlns:xlink="http://www.w3.org/1999/xlink" x="0px" y="0px" viewBox="0 0 88 88"
	 style="enable-background:new 0 0 88 88;" xml:space="preserve">
<style type="text/css">
	.st0{fill:#2F3A3E;}
	.st1{fill:#29A9E1;}
</style>
<g>
	<g>
		<path class="st0" d="M13.9,1h60.2C81.2,1,87,6.8,87,13.9v60.2C87,81.2,81.2,87,74.1,87H13.9C6.8,87,1,81.2,1,74.1V13.9
			C1,6.8,6.8,1,13.9,1z"/>
	</g>
	<g>
		<path class="st1" d="M10,19.6l27.8-3.8l0,26.8l-27.7,0.2L10,19.6z M37.8,45.6l0,26.8l-27.8-3.8l0-23.2L37.8,45.6z M41.2,15.3
			L78,9.9v32.3l-36.8,0.3L41.2,15.3z M78,45.9l0,32.2l-36.8-5.2l-0.1-27L78,45.9z"/>
	</g>
</g>
</svg>
